{"glyphs":{"0":{"ha":681,"x_min":31,"x_max":650,"o":"m 342 905 q 559 774 469 905 q 650 440 650 643 q 607 222 650 340 q 489 43 564 104 q 339 -17 414 -17 q 123 119 215 -17 q 31 446 31 255 q 121 770 31 634 q 342 905 212 905 m 336 28 q 398 74 377 28 q 424 374 420 121 l 428 561 q 407 787 428 713 q 340 861 386 861 q 270 764 286 861 q 253 414 253 667 q 265 141 253 219 q 293 45 277 63 q 336 28 309 28 z "},"1":{"ha":681,"x_min":62,"x_max":611,"o":"m 447 899 l 447 45 l 611 45 l 611 0 l 62 0 l 62 45 l 237 45 l 237 838 l 62 838 l 62 882 l 165 882 q 337 890 234 882 l 422 899 l 447 899 z "},"2":{"ha":681,"x_min":39,"x_max":636,"o":"m 623 294 l 602 0 l 39 0 l 39 121 q 117 191 79 159 q 358 420 304 347 q 412 632 412 493 q 279 847 412 847 q 185 821 227 847 q 143 761 143 795 q 178 737 143 738 q 246 713 213 736 q 279 636 279 691 q 248 563 279 591 q 179 534 216 534 q 99 570 136 534 q 62 671 62 606 q 138 837 62 768 q 332 905 213 905 q 548 832 459 905 q 636 657 636 760 q 435 366 636 504 l 163 178 l 163 175 l 503 175 q 560 194 545 175 q 578 294 576 212 l 623 294 z "},"3":{"ha":681,"x_min":43,"x_max":639,"o":"m 317 482 l 317 479 q 560 406 481 476 q 639 237 639 336 q 549 55 639 127 q 311 -17 460 -17 q 113 40 183 -17 q 43 171 43 98 q 74 250 43 220 q 150 279 106 279 q 221 253 191 279 q 250 184 250 227 q 182 89 250 127 q 168 72 168 81 q 207 41 168 54 q 285 28 245 28 q 416 244 416 28 q 258 458 416 458 l 171 454 q 144 476 144 454 q 172 501 144 501 l 236 498 q 367 547 334 498 q 400 685 400 595 q 375 821 400 777 q 289 864 350 864 q 227 851 256 864 q 197 827 197 839 q 216 803 197 815 q 267 725 267 767 q 238 659 267 684 q 175 635 210 635 q 102 663 134 635 q 71 732 71 690 q 141 854 71 802 q 323 905 212 905 q 531 847 446 905 q 615 699 615 789 q 317 482 615 519 z "},"4":{"ha":681,"x_min":20,"x_max":650,"o":"m 509 905 l 509 285 l 607 285 l 607 374 l 650 374 l 650 150 l 607 150 l 607 240 l 509 240 l 509 45 l 607 45 l 607 0 l 201 0 l 201 45 l 313 45 l 313 240 l 20 240 l 20 286 l 411 905 l 509 905 m 310 669 l 69 285 l 313 285 l 313 669 l 310 669 z "},"5":{"ha":681,"x_min":33,"x_max":635,"o":"m 158 707 l 150 513 q 318 543 246 543 q 539 470 444 543 q 635 272 635 397 q 538 66 635 149 q 294 -17 441 -17 q 102 42 171 -17 q 33 172 33 100 q 63 245 33 214 q 140 277 92 277 q 213 248 187 277 q 239 179 239 218 q 218 123 239 148 q 172 93 198 99 q 146 74 146 87 q 186 42 146 56 q 271 28 227 28 q 408 245 408 28 q 260 492 408 492 q 177 478 213 492 l 118 456 q 105 463 107 456 q 104 493 103 470 l 117 844 q 122 882 118 875 q 144 889 125 889 l 504 889 q 529 893 522 889 q 545 929 536 897 l 585 929 q 544 742 572 777 q 429 707 516 707 l 158 707 z "},"6":{"ha":681,"x_min":39,"x_max":648,"o":"m 272 518 l 275 515 q 396 572 315 572 q 576 485 503 572 q 648 288 648 397 q 560 75 648 166 q 351 -17 471 -17 q 127 89 216 -17 q 39 385 39 195 q 122 682 39 560 q 339 860 205 803 q 559 917 472 917 q 583 895 583 917 q 564 873 583 873 q 372 777 454 865 q 272 518 289 688 m 358 518 q 279 467 298 518 q 261 281 261 416 q 278 74 261 125 q 343 22 294 22 q 410 60 390 22 q 429 193 429 97 q 415 472 429 425 q 358 518 400 518 z "},"7":{"ha":681,"x_min":33,"x_max":656,"o":"m 117 889 l 656 889 l 656 843 q 395 310 395 456 q 419 191 395 252 q 444 98 444 130 q 407 13 444 43 q 315 -17 370 -17 q 228 15 260 -17 q 195 103 195 47 q 246 260 195 157 q 402 526 297 363 q 529 718 507 688 l 163 718 q 122 711 132 718 q 103 675 113 705 l 77 593 l 33 593 l 117 889 z "},"8":{"ha":681,"x_min":31,"x_max":650,"o":"m 401 463 l 401 460 q 589 374 529 442 q 650 222 650 307 q 571 51 650 118 q 345 -17 492 -17 q 111 55 191 -17 q 31 228 31 126 q 265 460 31 407 l 265 463 q 64 679 64 524 q 143 840 64 774 q 346 905 222 905 q 547 835 471 905 q 623 676 623 764 q 401 463 623 519 m 340 479 q 401 528 391 479 q 412 694 412 576 q 394 836 412 808 q 340 864 376 864 q 286 834 306 864 q 267 673 267 804 q 282 524 267 568 q 340 479 298 479 m 342 28 q 410 66 387 28 q 433 241 433 104 q 410 400 433 363 q 338 437 386 437 q 264 388 280 437 q 248 222 248 338 q 270 66 248 104 q 342 28 292 28 z "},"9":{"ha":681,"x_min":32,"x_max":642,"o":"m 408 371 l 406 374 q 285 317 366 317 q 104 404 177 317 q 32 602 32 492 q 120 814 32 723 q 329 905 209 905 q 553 799 464 905 q 642 504 642 693 q 558 207 642 328 q 341 29 475 86 q 121 -28 208 -28 q 97 -5 97 -28 q 117 16 97 16 q 309 112 227 24 q 408 371 391 200 m 322 371 q 394 412 369 371 q 419 608 419 452 q 402 815 419 764 q 338 867 386 867 q 271 829 290 867 q 252 696 252 792 q 266 417 252 463 q 322 371 280 371 z "}," ":{"ha":340,"x_min":0,"x_max":0,"o":""},"!":{"ha":376,"x_min":79,"x_max":296,"o":"m 205 281 l 163 281 l 163 311 q 124 570 163 406 q 85 798 85 734 q 114 894 85 860 q 191 928 142 928 q 263 895 234 928 q 292 808 292 863 q 249 573 292 734 q 205 310 205 412 l 205 281 m 187 207 q 262 177 229 207 q 296 103 296 147 q 264 24 296 57 q 187 -9 233 -9 q 111 23 143 -9 q 79 100 79 55 q 111 176 79 144 q 187 207 143 207 z "},"\"":{"ha":771,"x_min":121,"x_max":648,"o":"m 239 472 l 205 472 l 135 733 q 121 825 121 782 q 150 893 121 863 q 221 924 179 924 q 294 894 265 924 q 322 827 322 865 q 306 732 322 797 l 239 472 m 566 472 l 532 472 l 464 732 q 447 827 447 782 q 475 892 447 860 q 550 924 504 924 q 623 891 597 924 q 648 828 648 859 q 631 732 648 804 l 566 472 z "},"#":{"ha":928,"x_min":56,"x_max":871,"o":"m 56 679 l 269 679 l 326 945 l 437 945 l 380 679 l 637 679 l 693 945 l 806 945 l 749 679 l 871 679 l 871 567 l 728 567 l 682 345 l 871 345 l 871 233 l 660 233 l 603 -31 l 490 -31 l 549 233 l 289 233 l 235 -31 l 122 -31 l 178 233 l 56 233 l 56 345 l 201 345 l 248 567 l 56 567 l 56 679 m 615 567 l 358 567 l 313 346 l 570 346 l 615 567 z "},"$":{"ha":681,"x_min":31,"x_max":639,"o":"m 425 828 l 425 513 q 639 254 639 453 q 425 0 639 54 l 425 -139 l 383 -139 l 383 -8 q 334 -12 355 -12 q 301 -9 319 -12 l 301 -139 l 260 -139 l 260 -8 q 88 72 146 11 q 31 201 31 132 q 56 272 31 246 q 125 297 82 297 q 188 272 163 297 q 212 211 212 246 q 192 155 212 178 q 146 125 172 132 q 121 107 121 118 q 156 68 121 91 q 260 35 191 46 l 260 358 q 50 607 50 426 q 260 861 50 798 l 260 932 l 301 932 l 301 868 q 383 871 345 873 l 383 932 l 425 932 l 425 868 q 583 798 530 852 q 635 688 635 744 q 613 622 635 648 q 551 595 591 595 q 495 616 516 595 q 475 671 475 638 q 533 745 475 729 q 554 760 554 749 q 519 796 554 774 q 425 828 484 817 m 383 524 l 383 831 q 301 825 333 831 l 301 546 q 383 524 347 530 m 260 558 l 260 818 q 138 681 138 777 q 260 558 138 592 m 383 35 l 383 322 l 301 346 l 301 31 q 383 35 328 28 m 425 310 l 425 40 q 527 99 494 59 q 559 184 559 139 q 425 310 559 281 z "},"%":{"ha":1287,"x_min":100,"x_max":1186,"o":"m 326 922 q 485 862 421 922 q 549 682 549 802 q 485 503 549 564 q 325 441 421 441 q 164 502 229 441 q 100 681 100 563 q 164 862 100 801 q 326 922 229 922 m 368 618 l 371 705 q 362 863 374 831 q 325 896 350 896 q 285 844 293 896 q 277 694 277 792 q 287 511 277 554 q 322 468 296 468 q 358 492 351 468 q 368 618 365 517 m 985 922 l 386 -53 l 300 -53 l 900 922 l 985 922 m 964 428 q 1122 368 1059 428 q 1186 187 1186 307 q 1122 8 1186 70 q 962 -53 1059 -53 q 802 8 867 -53 q 737 186 737 68 q 802 367 737 307 q 964 428 867 428 m 1006 123 l 1008 211 q 1000 369 1012 336 q 962 401 987 401 q 923 350 930 401 q 915 200 915 298 q 924 17 915 60 q 960 -26 933 -26 q 996 -2 989 -26 q 1006 123 1002 22 z "},"&":{"ha":1055,"x_min":57,"x_max":1022,"o":"m 999 0 l 659 0 l 610 81 q 350 -8 501 -8 q 131 63 205 -8 q 57 235 57 134 q 343 529 57 427 q 282 707 282 637 q 357 857 282 805 q 536 909 432 909 q 710 864 636 909 q 785 737 785 819 q 561 561 785 620 l 741 262 q 814 385 785 325 q 843 469 843 445 q 802 498 843 498 l 713 498 l 713 546 l 1022 546 l 1022 498 l 964 498 q 919 492 928 498 q 863 387 909 486 q 762 222 817 289 l 869 40 l 999 40 l 999 0 m 490 677 l 541 596 q 615 650 596 612 q 633 751 633 688 q 605 846 633 813 q 532 879 577 879 q 465 857 490 879 q 440 803 440 836 q 490 677 440 760 m 587 117 l 361 498 q 250 371 250 457 q 320 172 250 288 q 460 57 391 57 q 587 117 503 57 z "},"'":{"ha":386,"x_min":93,"x_max":294,"o":"m 211 472 l 178 472 l 107 732 q 93 822 93 787 q 122 893 93 863 q 193 924 151 924 q 266 894 237 924 q 294 825 294 864 q 278 732 294 797 l 211 472 z "},"(":{"ha":593,"x_min":74,"x_max":533,"o":"m 475 922 l 533 922 q 328 627 386 775 q 269 290 269 479 q 337 -73 269 73 q 533 -342 404 -218 l 475 -342 q 170 -25 265 -176 q 74 286 74 125 q 166 599 74 450 q 475 922 258 748 z "},")":{"ha":593,"x_min":60,"x_max":519,"o":"m 118 -342 l 60 -342 q 266 -46 208 -195 q 323 290 323 102 q 256 653 323 507 q 60 922 189 799 l 118 922 q 424 606 328 756 q 519 294 519 456 q 427 -18 519 131 q 118 -342 335 -168 z "},"*":{"ha":681,"x_min":50,"x_max":631,"o":"m 317 612 q 272 618 288 618 q 207 611 253 618 q 154 604 161 604 q 80 626 111 604 q 50 689 50 647 q 71 743 50 720 q 125 766 92 766 q 175 755 149 766 q 238 704 200 743 q 326 640 277 665 q 288 750 317 692 q 260 838 260 807 q 285 901 260 880 q 343 922 311 922 q 400 899 377 922 q 422 835 422 876 q 416 793 422 809 q 386 734 410 777 q 354 640 361 692 q 453 715 396 662 q 550 768 509 768 q 605 745 579 768 q 631 689 631 722 q 598 625 631 647 q 534 603 566 603 q 485 610 526 603 q 428 618 444 618 q 366 612 408 618 q 452 551 400 574 q 527 501 505 527 q 550 440 550 475 q 527 385 550 410 q 469 361 503 361 q 417 382 439 361 q 388 420 396 404 q 372 494 379 437 q 342 596 366 550 q 310 498 318 557 q 212 361 296 361 q 155 383 180 361 q 131 437 131 406 q 224 547 131 503 q 317 612 290 578 z "},"+":{"ha":926,"x_min":89,"x_max":836,"o":"m 89 517 l 400 517 l 400 828 l 525 828 l 525 517 l 836 517 l 836 392 l 525 392 l 525 81 l 400 81 l 400 392 l 89 392 l 89 517 z "},",":{"ha":376,"x_min":58,"x_max":318,"o":"m 135 -249 l 113 -214 q 260 -4 260 -115 q 241 33 260 33 q 220 16 234 33 q 150 -17 195 -17 q 86 13 113 -17 q 58 87 58 43 q 91 170 58 136 q 171 203 123 203 q 274 153 229 203 q 318 24 318 103 q 135 -249 318 -140 z "},"-":{"ha":521,"x_min":93,"x_max":428,"o":"m 93 354 l 428 354 l 428 195 l 93 195 l 93 354 z "},".":{"ha":376,"x_min":69,"x_max":306,"o":"m 69 100 q 104 183 69 149 q 187 218 140 218 q 271 183 236 218 q 306 100 306 149 q 271 16 306 51 q 187 -18 237 -18 q 104 17 140 -18 q 69 100 69 52 z "},"/":{"ha":390,"x_min":0,"x_max":390,"o":"m 0 -18 l 257 922 l 390 922 l 134 -18 l 0 -18 z "},":":{"ha":376,"x_min":69,"x_max":306,"o":"m 69 443 q 104 526 69 492 q 187 561 140 561 q 271 526 236 561 q 306 443 306 492 q 271 359 306 394 q 187 325 237 325 q 104 360 140 325 q 69 443 69 395 m 69 100 q 104 183 69 149 q 187 218 140 218 q 271 183 236 218 q 306 100 306 149 q 271 16 306 51 q 187 -18 237 -18 q 104 17 140 -18 q 69 100 69 52 z "},";":{"ha":376,"x_min":58,"x_max":318,"o":"m 69 443 q 104 526 69 492 q 187 561 140 561 q 271 526 236 561 q 306 443 306 492 q 271 359 306 394 q 187 325 237 325 q 104 360 140 325 q 69 443 69 395 m 135 -249 l 113 -214 q 260 -4 260 -115 q 241 33 260 33 q 220 16 234 33 q 150 -17 195 -17 q 86 13 113 -17 q 58 87 58 43 q 91 170 58 136 q 171 203 123 203 q 274 153 229 203 q 318 24 318 103 q 135 -249 318 -140 z "},"<":{"ha":926,"x_min":89,"x_max":838,"o":"m 838 86 l 89 399 l 89 513 l 838 825 l 838 690 l 260 456 l 838 222 l 838 86 z "},"=":{"ha":926,"x_min":89,"x_max":838,"o":"m 89 681 l 838 681 l 838 555 l 89 555 l 89 681 m 89 358 l 838 358 l 838 233 l 89 233 l 89 358 z "},">":{"ha":926,"x_min":89,"x_max":838,"o":"m 89 825 l 838 513 l 838 399 l 89 86 l 89 221 l 667 456 l 89 689 l 89 825 z "},"?":{"ha":593,"x_min":41,"x_max":549,"o":"m 264 261 l 224 261 q 215 399 215 344 q 238 515 215 459 q 346 635 262 571 q 429 755 429 699 q 388 845 429 809 q 278 880 346 880 q 177 854 220 880 q 134 808 134 829 q 149 796 134 796 q 236 713 236 791 q 209 647 236 674 q 142 621 182 621 q 72 651 102 621 q 41 730 41 681 q 112 867 41 811 q 285 922 183 922 q 473 847 398 922 q 549 659 549 772 q 515 528 549 590 q 364 387 481 467 q 264 261 262 318 m 142 90 q 174 167 142 135 q 250 199 205 199 q 327 167 295 199 q 358 90 358 136 q 327 15 358 46 q 250 -17 295 -17 q 174 15 205 -17 q 142 90 142 47 z "},"@":{"ha":1292,"x_min":62,"x_max":1261,"o":"m 800 628 l 965 635 l 840 208 l 827 153 q 821 102 821 123 q 836 65 821 81 q 873 49 852 49 q 1065 172 962 49 q 1168 471 1168 296 q 1049 776 1168 653 q 733 899 931 899 q 300 714 467 899 q 134 272 134 530 q 285 -114 134 35 q 664 -262 436 -262 q 994 -167 839 -262 q 1219 113 1149 -71 l 1261 113 q 1027 -192 1185 -83 q 663 -300 869 -300 q 233 -133 404 -300 q 62 296 62 35 q 247 755 62 570 q 718 940 431 940 q 1076 809 946 940 q 1206 484 1206 679 q 1091 143 1206 287 q 799 0 976 0 q 695 34 730 0 q 661 117 661 68 q 677 211 661 161 l 675 214 q 443 0 557 0 q 358 43 388 0 q 329 150 329 87 q 454 498 329 342 q 681 653 578 653 q 775 547 765 653 l 778 547 l 800 628 m 746 517 q 732 579 746 553 q 696 604 719 604 q 572 443 641 604 q 504 186 504 281 q 516 142 504 161 q 545 123 528 123 q 670 256 593 123 q 746 517 746 388 z "},"A":{"ha":970,"x_min":21,"x_max":949,"o":"m 543 254 l 257 254 l 218 161 q 196 81 196 106 q 264 45 196 45 l 314 45 l 314 0 l 21 0 l 21 45 l 47 45 q 118 62 100 45 q 163 144 136 80 l 481 926 l 521 926 l 854 45 l 949 45 l 949 0 l 501 0 l 501 45 l 623 45 l 543 254 m 277 301 l 525 301 l 406 616 l 277 301 z "},"B":{"ha":897,"x_min":25,"x_max":852,"o":"m 493 0 l 25 0 l 25 45 l 140 45 l 140 865 l 25 865 l 25 909 l 507 909 q 747 845 675 909 q 819 696 819 780 q 764 563 819 625 q 570 482 708 501 l 570 479 q 852 252 852 443 q 762 69 852 138 q 493 0 671 0 m 363 865 l 363 501 l 415 501 q 549 529 515 501 q 583 685 583 557 q 556 829 583 792 q 435 865 528 865 l 363 865 m 431 457 l 363 457 l 363 45 l 415 45 q 571 84 537 45 q 606 267 606 123 q 565 419 606 380 q 431 457 525 457 z "},"C":{"ha":753,"x_min":46,"x_max":718,"o":"m 699 899 l 704 644 l 660 644 q 436 878 598 878 q 330 813 362 878 q 298 551 298 749 q 321 110 298 184 q 427 36 345 36 q 673 277 595 36 l 718 277 l 704 -4 l 660 -4 q 610 58 640 24 q 411 -12 521 -12 q 157 111 269 -12 q 46 447 46 233 q 157 790 46 659 q 432 922 268 922 q 610 856 530 922 q 660 899 640 878 l 699 899 z "},"D":{"ha":970,"x_min":26,"x_max":921,"o":"m 140 45 l 140 865 l 26 865 l 26 909 l 488 909 q 804 783 688 909 q 921 463 921 656 q 885 274 921 362 q 776 114 850 186 q 624 21 702 41 q 433 0 547 0 l 26 0 l 26 45 l 140 45 m 363 865 l 363 45 l 435 45 q 634 141 600 45 q 668 472 668 238 q 647 735 668 655 q 583 840 626 815 q 475 865 541 865 l 363 865 z "},"E":{"ha":897,"x_min":37,"x_max":846,"o":"m 375 865 l 375 481 l 404 481 q 568 642 546 481 l 612 642 l 612 269 l 568 269 q 404 436 557 436 l 375 436 l 375 45 l 530 45 q 799 298 736 45 l 846 298 l 827 0 l 37 0 l 37 45 l 153 45 l 153 865 l 37 865 l 37 909 l 799 909 l 811 656 l 766 656 q 660 825 724 785 q 493 865 597 865 l 375 865 z "},"F":{"ha":825,"x_min":29,"x_max":799,"o":"m 367 865 l 367 482 l 389 482 q 562 643 547 482 l 612 643 l 612 268 l 568 268 q 525 387 564 337 q 389 437 486 437 l 367 437 l 367 45 l 497 45 l 497 0 l 29 0 l 29 45 l 144 45 l 144 865 l 29 865 l 29 909 l 791 909 l 799 632 l 751 632 q 510 865 704 865 l 367 865 z "},"G":{"ha":897,"x_min":43,"x_max":884,"o":"m 812 314 l 812 138 q 468 -12 653 -12 q 165 124 287 -12 q 43 456 43 260 q 172 788 43 654 q 468 922 300 922 q 694 839 592 922 q 749 900 718 863 l 794 900 l 794 629 l 749 629 q 468 878 675 878 q 357 846 398 878 q 306 751 316 815 q 296 492 296 687 q 297 209 296 302 q 338 76 299 116 q 457 36 378 36 q 548 57 519 36 q 583 114 576 79 q 589 222 589 149 l 589 314 l 467 314 l 467 358 l 884 358 l 884 314 l 812 314 z "},"H":{"ha":1055,"x_min":40,"x_max":1015,"o":"m 677 446 l 378 446 l 378 45 l 493 45 l 493 0 l 40 0 l 40 45 l 155 45 l 155 865 l 40 865 l 40 909 l 493 909 l 493 865 l 378 865 l 378 493 l 677 493 l 677 865 l 564 865 l 564 909 l 1015 909 l 1015 865 l 900 865 l 900 45 l 1015 45 l 1015 0 l 564 0 l 564 45 l 677 45 l 677 446 z "},"I":{"ha":521,"x_min":28,"x_max":493,"o":"m 370 865 l 370 45 l 493 45 l 493 0 l 28 0 l 28 45 l 147 45 l 147 865 l 28 865 l 28 909 l 493 909 l 493 865 l 370 865 z "},"J":{"ha":681,"x_min":26,"x_max":633,"o":"m 518 865 l 518 275 q 499 66 518 136 q 405 -68 479 -3 q 220 -134 331 -134 q 77 -91 127 -134 q 26 4 26 -49 q 53 73 26 42 q 123 104 79 104 q 189 79 162 104 q 216 12 216 53 q 179 -69 216 -24 q 224 -89 179 -89 q 296 3 296 -89 l 296 865 l 174 865 l 174 909 l 633 909 l 633 865 l 518 865 z "},"K":{"ha":1028,"x_min":29,"x_max":1036,"o":"m 371 865 l 371 45 l 486 45 l 486 0 l 29 0 l 29 45 l 149 45 l 149 865 l 29 865 l 29 909 l 486 909 l 486 865 l 371 865 m 554 602 l 930 45 l 1036 45 l 1036 0 l 558 0 l 558 45 l 669 45 l 379 478 l 681 787 q 718 843 718 825 q 665 865 718 865 l 604 865 l 604 909 l 951 909 l 951 865 l 917 865 q 821 849 856 865 q 718 765 787 833 l 554 602 z "},"L":{"ha":825,"x_min":18,"x_max":796,"o":"m 782 0 l 18 0 l 18 45 l 142 45 l 142 865 l 18 865 l 18 909 l 500 909 l 500 865 l 364 865 l 364 45 l 450 45 q 556 52 522 45 q 632 96 591 60 q 703 187 674 132 q 754 309 732 242 l 796 309 l 782 0 z "},"M":{"ha":1129,"x_min":21,"x_max":1100,"o":"m 401 909 l 571 383 l 742 909 l 1100 909 l 1100 865 l 983 865 l 983 45 l 1100 45 l 1100 0 l 642 0 l 642 45 l 761 45 l 761 817 l 498 0 l 467 0 l 200 827 l 200 138 q 214 63 200 81 q 293 45 229 45 l 325 45 l 325 0 l 21 0 l 21 45 l 77 45 q 141 62 130 45 q 153 134 153 80 l 153 865 l 21 865 l 21 909 l 401 909 z "},"N":{"ha":897,"x_min":17,"x_max":878,"o":"m 359 909 l 721 375 l 721 766 q 709 847 721 828 q 644 865 696 865 l 602 865 l 602 909 l 878 909 l 878 865 l 846 865 q 781 850 794 865 q 768 787 768 834 l 768 -12 l 721 -12 l 180 787 l 180 131 q 192 60 180 76 q 256 45 203 45 l 309 45 l 309 0 l 21 0 l 21 45 l 57 45 q 123 63 112 45 q 134 160 134 81 l 134 787 q 124 852 134 839 q 66 865 114 865 l 17 865 l 17 909 l 359 909 z "},"O":{"ha":897,"x_min":41,"x_max":856,"o":"m 41 458 q 162 792 41 663 q 452 922 283 922 q 732 800 608 922 q 856 453 856 678 q 739 115 856 242 q 453 -12 622 -12 q 156 123 271 -12 q 41 458 41 258 m 603 454 q 595 730 603 663 q 555 837 587 796 q 449 878 523 878 q 350 845 387 878 q 303 739 313 812 q 294 456 294 667 q 302 179 294 247 q 343 72 310 112 q 449 32 377 32 q 546 64 509 32 q 593 169 584 96 q 603 454 603 241 z "},"P":{"ha":825,"x_min":16,"x_max":802,"o":"m 351 425 l 351 45 l 482 45 l 482 0 l 16 0 l 16 45 l 129 45 l 129 865 l 16 865 l 16 909 l 447 909 q 720 838 639 909 q 802 669 802 766 q 711 498 802 572 q 392 425 621 425 l 351 425 m 351 865 l 351 469 l 397 469 q 491 479 458 469 q 545 532 524 489 q 566 669 566 575 q 545 804 566 762 q 492 856 524 846 q 400 865 460 865 l 351 865 z "},"Q":{"ha":897,"x_min":41,"x_max":856,"o":"m 793 -229 l 793 -277 q 654 -290 742 -290 q 408 -232 493 -290 q 323 -41 323 -174 q 325 7 323 -22 q 115 178 189 55 q 41 458 41 302 q 163 793 41 664 q 450 922 284 922 q 731 800 607 922 q 856 453 856 678 q 780 169 856 286 q 578 7 705 53 q 616 -194 572 -155 q 746 -233 661 -233 q 793 -229 756 -233 m 603 454 q 595 730 603 663 q 555 837 587 796 q 449 878 523 878 q 350 845 387 878 q 303 739 313 812 q 294 456 294 667 q 302 179 294 247 q 343 71 310 112 q 449 31 377 31 q 545 63 507 31 q 593 168 583 96 q 603 454 603 239 z "},"R":{"ha":970,"x_min":24,"x_max":947,"o":"m 361 464 l 361 45 l 479 45 l 479 0 l 24 0 l 24 45 l 139 45 l 139 865 l 24 865 l 24 909 l 479 909 q 779 842 699 909 q 859 699 859 775 q 785 559 859 617 q 566 484 712 502 l 566 481 q 731 407 676 453 q 799 306 785 361 q 814 173 813 250 q 827 78 815 96 q 871 60 839 60 q 947 82 906 60 l 947 31 q 800 -4 881 -4 q 631 49 694 -4 q 563 241 567 102 q 526 422 558 380 q 410 464 494 464 l 361 464 m 361 865 l 361 509 l 447 509 q 571 542 536 509 q 606 692 606 574 q 573 835 606 804 q 460 865 541 865 l 361 865 z "},"S":{"ha":681,"x_min":50,"x_max":631,"o":"m 574 905 l 585 661 l 530 661 q 433 830 488 782 q 301 878 378 878 q 193 836 235 878 q 150 741 150 795 q 195 648 150 673 q 349 600 239 623 q 573 492 516 564 q 631 309 631 420 q 555 83 631 178 q 343 -12 479 -12 q 168 49 246 -12 q 100 -9 130 19 l 54 -9 l 54 256 l 107 256 q 339 32 167 32 q 479 85 430 32 q 528 205 528 139 q 506 273 528 243 q 456 320 485 302 q 299 364 428 338 q 110 463 170 391 q 50 644 50 536 q 124 842 50 761 q 307 922 197 922 q 473 864 391 922 q 530 905 500 880 l 574 905 z "},"T":{"ha":825,"x_min":31,"x_max":794,"o":"m 36 909 l 789 909 l 794 612 l 753 612 q 545 865 703 865 l 524 865 l 524 45 l 661 45 l 661 0 l 164 0 l 164 45 l 301 45 l 301 865 l 281 865 q 72 612 123 865 l 31 612 l 36 909 z "},"U":{"ha":970,"x_min":25,"x_max":957,"o":"m 367 865 l 367 278 q 418 89 367 137 q 558 41 470 41 q 678 66 625 41 q 762 142 732 92 q 793 314 793 193 l 793 794 q 787 853 793 841 q 729 865 781 865 l 667 865 l 667 909 l 957 909 l 957 865 l 914 865 q 852 853 863 865 q 840 789 840 842 l 840 318 q 823 161 840 229 q 731 41 806 94 q 503 -12 657 -12 q 344 6 421 -12 q 218 73 267 25 q 157 170 170 120 q 144 286 144 220 l 144 865 l 25 865 l 25 909 l 492 909 l 492 865 l 367 865 z "},"V":{"ha":897,"x_min":18,"x_max":882,"o":"m 553 307 l 708 766 q 728 835 728 817 q 664 865 728 865 l 602 865 l 602 909 l 882 909 l 882 865 l 851 865 q 797 853 808 865 q 765 785 785 840 l 489 -17 l 447 -17 l 94 865 l 18 865 l 18 909 l 428 909 l 428 865 l 330 865 l 553 307 z "},"W":{"ha":1346,"x_min":17,"x_max":1336,"o":"m 819 621 l 958 273 l 1154 768 q 1165 796 1154 770 q 1177 843 1177 822 q 1131 865 1177 865 l 1084 865 l 1084 909 l 1336 909 l 1336 865 l 1315 865 q 1248 855 1260 865 q 1210 779 1236 844 l 893 -17 l 848 -17 l 696 363 l 513 -17 l 468 -17 l 114 865 l 17 865 l 17 909 l 1025 909 l 1025 865 l 1002 865 q 942 854 958 865 q 901 790 926 842 l 819 621 m 722 865 l 798 677 l 856 800 q 868 840 868 825 q 828 865 868 865 l 722 865 m 339 865 l 589 245 l 673 422 l 494 865 l 339 865 z "},"X":{"ha":970,"x_min":37,"x_max":947,"o":"m 566 559 l 873 45 l 947 45 l 947 0 l 497 0 l 497 45 l 621 45 l 428 366 l 260 134 q 222 62 222 81 q 275 45 222 45 l 335 45 l 335 0 l 37 0 l 37 45 l 62 45 q 136 56 117 45 q 192 119 155 68 l 401 411 l 131 865 l 37 865 l 37 909 l 478 909 l 478 865 l 382 865 l 539 604 l 679 798 q 704 846 704 833 q 657 865 704 865 l 589 865 l 589 909 l 892 909 l 892 865 l 839 865 q 785 856 802 865 q 734 798 769 846 l 566 559 z "},"Y":{"ha":897,"x_min":26,"x_max":882,"o":"m 26 909 l 452 909 l 452 865 l 346 865 l 551 481 l 707 789 q 719 815 710 793 q 728 844 728 836 q 686 865 728 865 l 650 865 l 650 909 l 882 909 l 882 865 q 806 852 826 865 q 761 789 787 839 l 572 424 l 572 45 l 713 45 l 713 0 l 210 0 l 210 45 l 350 45 l 350 412 l 92 865 l 26 865 l 26 909 z "},"Z":{"ha":897,"x_min":56,"x_max":842,"o":"m 90 909 l 828 909 l 828 869 l 304 45 l 471 45 q 575 59 526 45 q 682 138 625 74 q 783 335 739 202 l 842 335 l 833 0 l 56 0 l 56 54 l 568 865 l 385 865 q 230 813 280 865 q 143 627 179 761 l 90 627 l 90 909 z "},"[":{"ha":593,"x_min":178,"x_max":551,"o":"m 351 868 l 351 -286 l 551 -286 l 551 -328 l 178 -328 l 178 909 l 551 909 l 551 868 l 351 868 z "},"\\":{"ha":390,"x_min":0,"x_max":390,"o":"m 390 -18 l 257 -18 l 0 922 l 134 922 l 390 -18 z "},"]":{"ha":593,"x_min":41,"x_max":415,"o":"m 241 -286 l 241 868 l 41 868 l 41 909 l 415 909 l 415 -328 l 41 -328 l 41 -286 l 241 -286 z "},"^":{"ha":807,"x_min":93,"x_max":713,"o":"m 93 435 l 366 922 l 440 922 l 713 435 l 596 435 l 403 781 l 210 435 l 93 435 z "},"_":{"ha":694,"x_min":-8,"x_max":703,"o":"m 703 -174 l -8 -174 l -8 -104 l 703 -104 l 703 -174 z "},"`":{"ha":463,"x_min":28,"x_max":351,"o":"m 268 886 l 351 661 l 326 661 l 28 886 l 268 886 z "},"a":{"ha":681,"x_min":37,"x_max":659,"o":"m 382 311 l 382 433 q 370 503 382 483 q 307 524 357 524 q 245 512 267 524 q 222 488 222 500 q 238 463 222 479 q 254 422 254 447 q 228 362 254 387 q 161 336 201 336 q 98 360 125 336 q 72 419 72 385 q 143 520 72 479 q 339 562 214 562 q 502 538 436 562 q 567 428 567 513 l 567 142 q 608 68 567 68 q 640 81 620 68 l 659 50 q 525 -17 601 -17 q 392 65 446 -17 q 195 -17 303 -17 q 79 21 121 -17 q 37 117 37 60 q 382 311 37 298 m 382 187 l 382 275 q 254 247 290 272 q 218 161 218 221 q 241 89 218 115 q 298 62 263 62 q 360 89 338 62 q 382 187 382 115 z "},"b":{"ha":681,"x_min":21,"x_max":644,"o":"m 279 922 l 279 486 l 282 486 q 422 562 330 562 q 576 484 509 562 q 644 279 644 406 q 576 68 644 154 q 419 -17 507 -17 q 282 66 330 -17 l 279 66 l 279 -8 l 260 -8 q 111 0 199 0 l 21 0 l 21 41 l 94 41 l 94 868 l 21 868 l 21 909 l 110 909 q 208 916 147 909 l 260 922 l 279 922 m 279 335 l 279 196 q 310 70 279 109 q 378 31 340 31 q 422 64 410 31 q 435 204 435 98 l 435 354 q 421 499 435 475 q 379 524 407 524 q 313 475 347 524 q 279 335 279 427 z "},"c":{"ha":593,"x_min":37,"x_max":579,"o":"m 542 179 l 579 179 q 499 35 568 86 q 338 -17 429 -17 q 126 66 214 -17 q 37 267 37 149 q 128 474 37 385 q 347 562 218 562 q 502 519 437 562 q 567 407 567 476 q 541 344 567 370 q 471 318 514 318 q 405 344 432 318 q 378 408 378 370 q 414 478 378 459 q 428 497 428 486 q 405 516 428 509 q 353 524 382 524 q 275 488 302 524 q 248 296 248 452 q 266 81 248 133 q 359 29 284 29 q 542 179 498 29 z "},"d":{"ha":681,"x_min":35,"x_max":653,"o":"m 579 922 l 579 40 l 653 40 l 653 0 l 568 0 q 491 -2 527 0 l 414 -8 l 395 -8 l 395 74 l 392 74 q 257 -17 349 -17 q 101 69 168 -17 q 35 281 35 155 q 102 482 35 402 q 260 562 170 562 q 395 493 336 562 l 395 868 l 285 868 l 285 909 l 382 909 q 493 916 415 909 q 579 922 571 922 m 395 211 l 395 357 q 363 483 395 441 q 298 524 332 524 q 258 494 273 524 q 244 376 244 465 l 244 172 q 255 58 244 87 q 293 29 265 29 q 358 67 322 29 q 395 211 395 105 z "},"e":{"ha":593,"x_min":35,"x_max":575,"o":"m 575 304 l 241 304 l 241 216 q 260 73 241 113 q 346 33 279 33 q 456 71 405 33 q 534 189 507 109 l 575 189 q 482 35 550 86 q 319 -17 414 -17 q 112 72 190 -17 q 35 277 35 161 q 113 475 35 388 q 310 562 192 562 q 487 498 412 562 q 575 304 562 435 m 241 349 l 387 349 l 387 406 q 367 502 387 479 q 313 524 347 524 q 261 504 280 524 q 241 404 241 484 l 241 349 z "},"f":{"ha":449,"x_min":26,"x_max":542,"o":"m 306 504 l 306 41 l 412 41 l 412 0 l 35 0 l 35 41 l 122 41 l 122 504 l 26 504 l 26 546 l 122 546 q 382 922 128 922 q 496 891 451 922 q 542 807 542 860 q 516 745 542 770 q 456 720 490 720 q 400 740 422 720 q 378 793 378 761 q 394 841 378 823 q 411 864 411 859 q 375 884 411 884 q 318 857 340 884 q 297 786 297 829 l 306 619 l 306 546 l 404 546 l 404 504 l 306 504 z "},"g":{"ha":681,"x_min":29,"x_max":660,"o":"m 536 478 q 576 371 576 432 q 502 229 576 283 q 335 174 428 174 q 279 177 310 174 q 221 180 249 180 q 131 160 163 180 q 98 113 98 139 q 158 78 98 78 q 277 85 200 78 q 450 93 355 93 q 635 -82 635 93 q 540 -284 635 -212 q 296 -357 446 -357 q 102 -314 175 -357 q 29 -203 29 -271 q 121 -81 29 -150 q 36 50 36 -53 q 171 207 36 172 q 66 368 66 269 q 134 503 66 444 q 323 562 201 562 q 515 500 439 562 q 602 579 545 579 q 660 513 660 579 q 618 454 660 454 q 586 473 600 454 q 558 492 572 492 q 536 478 548 492 m 323 208 q 384 243 372 208 q 395 376 395 279 q 383 498 395 467 q 319 530 371 530 q 263 503 278 530 q 248 359 248 476 q 268 232 248 256 q 323 208 288 208 m 157 -87 q 134 -171 134 -138 q 188 -280 134 -243 q 330 -317 243 -317 q 509 -262 442 -317 q 575 -140 575 -208 q 497 -79 575 -79 l 212 -93 q 157 -87 197 -93 z "},"h":{"ha":753,"x_min":16,"x_max":737,"o":"m 285 922 l 285 432 l 288 432 q 484 562 351 562 q 601 526 542 562 q 660 383 660 489 l 660 41 l 737 41 l 737 0 l 397 0 l 397 41 l 475 41 l 475 422 q 422 501 475 501 q 322 438 360 501 q 285 357 285 376 l 285 41 l 364 41 l 364 0 l 21 0 l 21 41 l 100 41 l 100 868 l 16 868 l 16 909 l 90 909 q 217 916 149 909 l 264 922 l 285 922 z "},"i":{"ha":376,"x_min":35,"x_max":338,"o":"m 87 794 q 116 864 87 836 q 186 893 145 893 q 257 864 227 893 q 286 794 286 835 q 257 724 286 753 q 186 694 227 694 q 116 724 145 694 q 87 794 87 753 m 285 562 l 285 41 l 338 41 l 338 0 l 35 0 l 35 41 l 100 41 l 100 504 l 35 504 l 35 546 l 121 546 q 233 554 188 546 q 285 562 279 562 z "},"j":{"ha":449,"x_min":-58,"x_max":335,"o":"m 136 798 q 165 867 136 838 q 235 896 193 896 q 306 867 276 896 q 335 798 335 838 q 306 727 335 756 q 235 697 276 697 q 165 727 194 697 q 136 798 136 756 m 334 562 l 334 -9 q 256 -269 334 -182 q 60 -357 178 -357 q -28 -332 2 -357 q -58 -267 -58 -307 q -34 -212 -58 -233 q 24 -191 -10 -191 q 69 -205 50 -191 q 97 -277 87 -220 q 118 -304 102 -304 q 151 -240 151 -304 l 149 -150 l 149 504 l 64 504 l 64 546 l 158 546 q 275 554 224 546 q 334 562 326 562 z "},"k":{"ha":753,"x_min":24,"x_max":733,"o":"m 285 922 l 285 292 l 429 431 q 451 455 431 433 q 472 484 472 477 q 424 504 472 504 l 386 504 l 386 546 l 673 546 l 673 504 l 653 504 q 572 494 603 504 q 501 444 542 485 l 435 378 l 679 41 l 733 41 l 733 0 l 386 0 l 386 41 l 458 41 l 288 283 l 285 283 l 285 41 l 347 41 l 347 0 l 24 0 l 24 41 l 102 41 l 102 868 l 24 868 l 24 909 l 86 909 l 249 922 l 285 922 z "},"l":{"ha":376,"x_min":36,"x_max":339,"o":"m 282 922 l 282 41 l 339 41 l 339 0 l 36 0 l 36 41 l 97 41 l 97 868 l 36 868 l 36 909 q 205 916 121 909 l 260 922 l 282 922 z "},"m":{"ha":1129,"x_min":16,"x_max":1114,"o":"m 278 562 l 278 446 l 281 446 q 489 562 346 562 q 656 439 639 562 q 854 562 730 562 q 976 539 936 562 q 1026 483 1015 517 q 1036 395 1036 448 l 1036 41 l 1114 41 l 1114 0 l 772 0 l 772 41 l 851 41 l 851 410 q 838 490 851 475 q 800 505 824 505 q 719 469 760 505 q 668 391 678 433 q 657 273 657 349 l 657 41 l 736 41 l 736 0 l 393 0 l 393 41 l 472 41 l 472 406 q 458 487 472 471 q 418 504 444 504 q 324 461 370 504 q 278 298 278 418 l 278 41 l 357 41 l 357 0 l 16 0 l 16 41 l 93 41 l 93 504 l 16 504 l 16 546 l 111 546 q 209 554 162 546 l 252 562 l 278 562 z "},"n":{"ha":753,"x_min":21,"x_max":734,"o":"m 285 562 l 285 447 l 288 447 q 489 562 359 562 q 590 538 547 562 q 645 488 633 513 q 657 411 657 463 l 657 41 l 734 41 l 734 0 l 393 0 l 393 41 l 472 41 l 472 421 q 458 488 472 473 q 419 504 444 504 q 335 461 385 504 q 285 311 285 418 l 285 41 l 364 41 l 364 0 l 21 0 l 21 41 l 100 41 l 100 504 l 22 504 l 22 546 l 72 546 q 205 554 139 546 l 265 562 l 285 562 z "},"o":{"ha":681,"x_min":40,"x_max":640,"o":"m 339 -17 q 121 70 203 -17 q 40 272 40 157 q 123 475 40 389 q 339 562 205 562 q 557 476 474 562 q 640 272 640 391 q 558 68 640 154 q 339 -17 475 -17 m 339 528 q 281 510 303 528 q 255 457 260 493 q 250 272 250 422 q 255 93 250 126 q 282 39 259 60 q 343 18 304 18 q 398 36 374 18 q 426 101 421 54 q 431 261 431 149 q 417 482 431 437 q 339 528 404 528 z "},"p":{"ha":681,"x_min":20,"x_max":642,"o":"m 279 562 l 279 476 l 282 476 q 418 562 328 562 q 573 477 504 562 q 642 271 642 392 q 578 66 642 149 q 424 -17 515 -17 q 279 58 339 -17 l 279 -315 l 366 -315 l 366 -357 l 20 -357 l 20 -315 l 94 -315 l 94 504 l 20 504 l 20 546 l 49 546 q 94 547 61 546 q 170 553 127 548 l 260 562 l 279 562 m 279 350 l 279 201 q 312 70 279 116 q 383 24 345 24 q 418 46 405 24 q 432 176 432 69 l 432 347 q 419 487 432 456 q 382 518 406 518 q 306 471 333 518 q 279 350 279 423 z "},"q":{"ha":681,"x_min":31,"x_max":661,"o":"m 581 504 l 581 -315 l 661 -315 l 661 -357 l 307 -357 l 307 -315 l 396 -315 l 396 57 l 393 57 q 253 -17 348 -17 q 93 67 155 -17 q 31 268 31 152 q 97 476 31 390 q 258 562 164 562 q 393 478 347 562 l 396 478 l 396 562 q 459 554 406 562 q 558 546 511 546 l 661 546 l 661 504 l 581 504 m 396 176 l 396 368 q 363 475 396 435 q 298 515 331 515 q 252 476 264 515 q 240 342 240 437 l 240 161 q 252 51 240 79 q 292 24 264 24 q 360 63 323 24 q 396 176 396 102 z "},"r":{"ha":521,"x_min":20,"x_max":503,"o":"m 264 554 l 264 404 l 267 404 q 320 523 283 484 q 403 562 357 562 q 475 531 447 562 q 503 453 503 499 q 481 390 503 414 q 431 366 460 366 q 379 388 401 366 q 358 437 358 410 q 370 485 358 471 q 382 503 382 498 q 371 510 382 510 q 306 444 337 510 q 275 228 275 377 l 275 41 l 376 41 l 376 0 l 20 0 l 20 41 l 90 41 l 90 504 l 20 504 l 20 546 l 110 546 q 216 550 182 546 l 240 554 l 264 554 z "},"s":{"ha":521,"x_min":43,"x_max":488,"o":"m 446 562 l 446 393 l 404 393 q 240 521 366 521 q 158 498 193 521 q 123 443 123 475 q 150 400 123 415 q 287 374 177 385 q 442 316 397 363 q 488 195 488 269 q 430 42 488 102 q 275 -17 373 -17 q 117 40 179 -17 l 74 5 l 43 5 l 43 204 l 83 204 q 277 28 127 28 q 369 53 330 28 q 408 117 408 78 q 388 161 408 144 q 289 186 367 178 q 161 211 212 195 q 79 266 111 226 q 47 374 47 307 q 102 507 47 451 q 252 562 156 562 q 382 524 319 562 l 414 562 l 446 562 z "},"t":{"ha":449,"x_min":18,"x_max":428,"o":"m 278 715 l 278 546 l 415 546 l 415 504 l 278 504 l 278 134 q 323 60 278 60 q 386 134 365 60 l 428 134 q 374 23 416 56 q 239 -9 332 -9 q 141 12 172 -9 q 102 61 109 33 q 94 134 94 90 l 94 504 l 18 504 l 18 546 l 94 546 l 94 684 l 278 715 z "},"u":{"ha":753,"x_min":18,"x_max":730,"o":"m 653 546 l 653 40 l 730 40 l 730 0 l 616 0 q 506 -4 531 0 q 468 -9 480 -9 l 468 102 l 465 102 q 384 20 438 50 q 265 -9 329 -9 q 161 15 204 -9 q 107 69 118 39 q 96 163 96 98 l 96 504 l 18 504 l 18 546 l 281 546 l 281 184 q 288 75 281 102 q 326 49 294 49 q 401 78 359 49 q 455 144 442 107 q 468 249 468 182 l 468 504 l 378 504 l 378 546 l 653 546 z "},"v":{"ha":652,"x_min":-7,"x_max":627,"o":"m -7 546 l 332 546 l 332 504 l 254 504 l 387 222 l 479 429 q 488 449 479 432 q 496 479 496 465 q 452 504 496 504 l 415 504 l 415 546 l 627 546 l 627 504 q 569 500 583 504 q 525 428 555 497 l 332 -17 l 300 -17 l 56 504 l -7 504 l -7 546 z "},"w":{"ha":970,"x_min":14,"x_max":956,"o":"m 14 546 l 370 546 l 370 504 l 269 504 l 386 212 l 529 546 l 574 546 l 737 212 l 817 446 q 827 486 827 475 q 783 504 827 504 l 737 504 l 737 546 l 956 546 l 956 504 l 930 504 q 887 494 899 504 q 859 439 875 485 l 697 -17 l 650 -17 l 485 330 l 336 -17 l 289 -17 l 78 504 l 14 504 l 14 546 z "},"x":{"ha":681,"x_min":21,"x_max":660,"o":"m 21 546 l 357 546 l 357 504 l 285 504 l 379 370 l 444 447 q 469 488 469 477 q 433 504 469 504 l 414 504 l 414 546 l 633 546 l 633 504 q 555 495 575 504 q 496 440 535 487 l 406 334 l 604 41 l 660 41 l 660 0 l 306 0 l 306 41 l 386 41 l 285 193 l 204 98 q 178 58 178 68 q 205 41 178 41 l 237 41 l 237 0 l 31 0 l 31 41 l 50 41 q 100 49 85 41 q 143 92 114 57 l 260 229 l 69 504 l 21 504 l 21 546 z "},"y":{"ha":681,"x_min":22,"x_max":659,"o":"m 22 546 l 361 546 l 361 504 l 279 504 l 421 214 l 511 425 q 528 479 528 467 q 472 504 528 504 l 447 504 l 447 546 l 659 546 l 659 504 q 600 493 614 504 q 567 441 585 483 l 277 -229 q 238 -301 277 -247 q 125 -355 200 -355 q 54 -330 82 -355 q 25 -271 25 -304 q 48 -212 25 -237 q 103 -187 71 -187 q 179 -240 149 -187 q 197 -256 188 -256 q 249 -187 220 -256 l 326 0 l 77 504 l 22 504 l 22 546 z "},"z":{"ha":593,"x_min":24,"x_max":570,"o":"m 56 546 l 570 546 l 570 513 l 245 41 l 321 41 q 416 67 388 41 q 528 241 445 94 l 570 241 l 558 0 l 24 0 l 24 40 l 345 504 l 298 504 q 197 482 223 504 q 90 330 171 460 l 46 330 l 56 546 z "},"{":{"ha":547,"x_min":113,"x_max":488,"o":"m 488 942 l 488 911 q 355 783 355 885 q 372 675 355 730 q 389 553 389 619 q 336 424 389 488 q 167 334 283 360 l 167 330 q 342 232 294 296 q 390 111 390 168 q 374 1 390 57 q 357 -118 357 -74 q 488 -249 357 -221 l 488 -279 q 280 -211 351 -281 q 208 -66 208 -142 q 226 52 208 -14 q 244 172 244 117 q 113 311 244 288 l 113 351 q 212 403 180 363 q 244 496 244 442 q 231 602 244 539 q 210 725 210 664 q 274 866 210 798 q 488 942 339 935 z "},"|":{"ha":786,"x_min":329,"x_max":456,"o":"m 329 922 l 456 922 l 456 -357 l 329 -357 l 329 922 z "},"}":{"ha":547,"x_min":62,"x_max":437,"o":"m 62 -281 l 62 -250 q 195 -122 195 -224 q 178 -7 195 -69 q 161 109 161 56 q 214 237 161 173 q 383 328 267 301 l 383 330 q 208 429 256 365 q 160 550 160 493 q 176 660 160 604 q 193 779 193 734 q 62 909 193 882 l 62 940 q 270 872 199 942 q 342 728 342 803 q 324 609 342 675 q 306 489 306 544 q 437 350 306 372 l 437 310 q 338 258 370 298 q 306 165 306 219 q 319 60 306 122 q 340 -64 340 -3 q 276 -205 340 -137 q 62 -281 211 -273 z "},"~":{"ha":926,"x_min":86,"x_max":840,"o":"m 791 572 l 840 572 q 783 392 838 458 q 642 325 728 325 q 549 339 595 325 q 397 399 502 354 q 248 444 292 444 q 135 325 151 444 l 86 325 q 148 514 92 456 q 279 572 203 572 q 541 494 359 572 q 679 452 638 452 q 754 482 723 452 q 791 572 786 513 z "},"Ä":{"ha":970,"x_min":21,"x_max":949,"o":"m 543 254 l 257 254 l 218 161 q 196 81 196 106 q 264 45 196 45 l 314 45 l 314 0 l 21 0 l 21 45 l 47 45 q 118 62 100 45 q 163 144 136 80 l 481 926 l 521 926 l 854 45 l 949 45 l 949 0 l 501 0 l 501 45 l 623 45 l 543 254 m 277 301 l 525 301 l 406 616 l 277 301 m 272 1108 q 297 1170 272 1144 q 359 1196 323 1196 q 421 1170 395 1196 q 447 1108 447 1144 q 421 1046 447 1072 q 359 1021 395 1021 q 297 1046 323 1021 q 272 1108 272 1072 m 523 1107 q 549 1170 523 1143 q 610 1196 574 1196 q 672 1170 646 1196 q 698 1107 698 1143 q 672 1046 698 1071 q 610 1021 646 1021 q 549 1046 575 1021 q 523 1107 523 1071 z "},"Å":{"ha":970,"x_min":21,"x_max":949,"o":"m 543 254 l 257 254 l 218 161 q 196 81 196 106 q 264 45 196 45 l 314 45 l 314 0 l 21 0 l 21 45 l 47 45 q 118 62 100 45 q 163 144 136 80 l 481 926 l 521 926 l 854 45 l 949 45 l 949 0 l 501 0 l 501 45 l 623 45 l 543 254 m 277 301 l 525 301 l 406 616 l 277 301 m 359 1106 q 397 1196 359 1159 q 486 1232 434 1232 q 575 1196 538 1232 q 612 1106 612 1159 q 575 1016 612 1053 q 486 979 538 979 q 397 1017 434 979 q 359 1106 359 1054 m 565 1106 q 542 1162 565 1139 q 486 1185 518 1185 q 430 1162 453 1185 q 406 1106 406 1139 q 430 1050 406 1074 q 486 1027 453 1027 q 542 1050 518 1027 q 565 1106 565 1074 z "},"Ç":{"ha":753,"x_min":46,"x_max":718,"o":"m 279 -283 l 279 -237 q 336 -245 322 -245 q 419 -200 419 -245 q 355 -160 419 -160 q 374 -9 373 -73 q 134 139 222 16 q 46 447 46 263 q 159 792 46 662 q 425 922 272 922 q 610 856 532 922 q 660 899 640 878 l 699 899 l 704 644 l 660 644 q 439 878 600 878 q 327 807 356 878 q 298 546 298 737 q 324 104 298 172 q 427 36 349 36 q 673 277 593 36 l 718 277 l 704 -4 l 660 -4 q 610 58 640 24 q 419 -12 524 -9 l 416 -74 q 517 -102 484 -74 q 551 -174 551 -130 q 500 -263 551 -231 q 396 -296 448 -296 q 279 -283 342 -296 z "},"É":{"ha":897,"x_min":37,"x_max":846,"o":"m 375 865 l 375 481 l 404 481 q 568 642 546 481 l 612 642 l 612 269 l 568 269 q 404 436 557 436 l 375 436 l 375 45 l 530 45 q 799 298 736 45 l 846 298 l 827 0 l 37 0 l 37 45 l 153 45 l 153 865 l 37 865 l 37 909 l 799 909 l 811 656 l 766 656 q 660 825 724 785 q 493 865 597 865 l 375 865 m 412 1222 l 652 1222 l 354 997 l 329 997 l 412 1222 z "},"Ñ":{"ha":897,"x_min":17,"x_max":878,"o":"m 359 909 l 721 375 l 721 766 q 709 847 721 828 q 644 865 696 865 l 602 865 l 602 909 l 878 909 l 878 865 l 846 865 q 781 850 794 865 q 768 787 768 834 l 768 -12 l 721 -12 l 180 787 l 180 131 q 192 60 180 76 q 256 45 203 45 l 309 45 l 309 0 l 21 0 l 21 45 l 57 45 q 123 63 112 45 q 134 160 134 81 l 134 787 q 124 852 134 839 q 66 865 114 865 l 17 865 l 17 909 l 359 909 m 643 1194 l 662 1194 q 614 1063 657 1106 q 515 1021 570 1021 q 413 1047 484 1021 q 316 1073 342 1073 q 258 1022 277 1073 l 237 1022 q 294 1157 248 1118 q 382 1196 340 1196 q 486 1168 407 1196 q 587 1141 564 1141 q 643 1194 627 1141 z "},"Ö":{"ha":897,"x_min":41,"x_max":856,"o":"m 41 458 q 162 792 41 663 q 452 922 283 922 q 732 800 608 922 q 856 453 856 678 q 739 115 856 242 q 453 -12 622 -12 q 156 123 271 -12 q 41 458 41 258 m 603 454 q 595 730 603 663 q 555 837 587 796 q 449 878 523 878 q 350 845 387 878 q 303 739 313 812 q 294 456 294 667 q 302 179 294 247 q 343 72 310 112 q 449 32 377 32 q 546 64 509 32 q 593 169 584 96 q 603 454 603 241 m 236 1108 q 261 1170 236 1144 q 323 1196 287 1196 q 385 1170 359 1196 q 411 1108 411 1144 q 385 1046 411 1072 q 323 1021 359 1021 q 261 1046 287 1021 q 236 1108 236 1072 m 487 1107 q 513 1170 487 1143 q 574 1196 538 1196 q 636 1170 610 1196 q 662 1107 662 1143 q 636 1046 662 1071 q 574 1021 610 1021 q 513 1046 539 1021 q 487 1107 487 1071 z "},"Ü":{"ha":970,"x_min":25,"x_max":957,"o":"m 367 865 l 367 278 q 418 89 367 137 q 558 41 470 41 q 678 66 625 41 q 762 142 732 92 q 793 314 793 193 l 793 794 q 787 853 793 841 q 729 865 781 865 l 667 865 l 667 909 l 957 909 l 957 865 l 914 865 q 852 853 863 865 q 840 789 840 842 l 840 318 q 823 161 840 229 q 731 41 806 94 q 503 -12 657 -12 q 344 6 421 -12 q 218 73 267 25 q 157 170 170 120 q 144 286 144 220 l 144 865 l 25 865 l 25 909 l 492 909 l 492 865 l 367 865 m 303 1108 q 329 1170 303 1144 q 391 1196 354 1196 q 452 1170 427 1196 q 478 1108 478 1144 q 452 1046 478 1072 q 391 1021 427 1021 q 329 1046 354 1021 q 303 1108 303 1072 m 554 1107 q 580 1170 554 1143 q 642 1196 606 1196 q 703 1170 677 1196 q 729 1107 729 1143 q 703 1046 729 1071 q 642 1021 677 1021 q 580 1046 606 1021 q 554 1107 554 1071 z "},"á":{"ha":681,"x_min":37,"x_max":659,"o":"m 382 311 l 382 433 q 370 503 382 483 q 307 524 357 524 q 245 512 267 524 q 222 488 222 500 q 238 463 222 479 q 254 422 254 447 q 228 362 254 387 q 161 336 201 336 q 98 360 125 336 q 72 419 72 385 q 143 520 72 479 q 339 562 214 562 q 502 538 436 562 q 567 428 567 513 l 567 142 q 608 68 567 68 q 640 81 620 68 l 659 50 q 525 -17 601 -17 q 392 65 446 -17 q 195 -17 303 -17 q 79 21 121 -17 q 37 117 37 60 q 382 311 37 298 m 382 187 l 382 275 q 254 247 290 272 q 218 161 218 221 q 241 89 218 115 q 298 62 263 62 q 360 89 338 62 q 382 187 382 115 m 304 886 l 545 886 l 246 661 l 221 661 l 304 886 z "},"à":{"ha":681,"x_min":37,"x_max":659,"o":"m 382 311 l 382 433 q 370 503 382 483 q 307 524 357 524 q 245 512 267 524 q 222 488 222 500 q 238 463 222 479 q 254 422 254 447 q 228 362 254 387 q 161 336 201 336 q 98 360 125 336 q 72 419 72 385 q 143 520 72 479 q 339 562 214 562 q 502 538 436 562 q 567 428 567 513 l 567 142 q 608 68 567 68 q 640 81 620 68 l 659 50 q 525 -17 601 -17 q 392 65 446 -17 q 195 -17 303 -17 q 79 21 121 -17 q 37 117 37 60 q 382 311 37 298 m 382 187 l 382 275 q 254 247 290 272 q 218 161 218 221 q 241 89 218 115 q 298 62 263 62 q 360 89 338 62 q 382 187 382 115 m 378 886 l 461 661 l 436 661 l 138 886 l 378 886 z "},"â":{"ha":681,"x_min":37,"x_max":659,"o":"m 382 311 l 382 433 q 370 503 382 483 q 307 524 357 524 q 245 512 267 524 q 222 488 222 500 q 238 463 222 479 q 254 422 254 447 q 228 362 254 387 q 161 336 201 336 q 98 360 125 336 q 72 419 72 385 q 143 520 72 479 q 339 562 214 562 q 502 538 436 562 q 567 428 567 513 l 567 142 q 608 68 567 68 q 640 81 620 68 l 659 50 q 525 -17 601 -17 q 392 65 446 -17 q 195 -17 303 -17 q 79 21 121 -17 q 37 117 37 60 q 382 311 37 298 m 382 187 l 382 275 q 254 247 290 272 q 218 161 218 221 q 241 89 218 115 q 298 62 263 62 q 360 89 338 62 q 382 187 382 115 m 246 895 l 440 895 l 557 647 l 534 647 l 343 789 l 156 647 l 131 647 l 246 895 z "},"ä":{"ha":681,"x_min":37,"x_max":659,"o":"m 382 311 l 382 433 q 370 503 382 483 q 307 524 357 524 q 245 512 267 524 q 222 488 222 500 q 238 463 222 479 q 254 422 254 447 q 228 362 254 387 q 161 336 201 336 q 98 360 125 336 q 72 419 72 385 q 143 520 72 479 q 339 562 214 562 q 502 538 436 562 q 567 428 567 513 l 567 142 q 608 68 567 68 q 640 81 620 68 l 659 50 q 525 -17 601 -17 q 392 65 446 -17 q 195 -17 303 -17 q 79 21 121 -17 q 37 117 37 60 q 382 311 37 298 m 382 187 l 382 275 q 254 247 290 272 q 218 161 218 221 q 241 89 218 115 q 298 62 263 62 q 360 89 338 62 q 382 187 382 115 m 127 772 q 153 834 127 808 q 215 860 178 860 q 277 834 251 860 q 302 772 302 808 q 277 710 302 736 q 215 685 251 685 q 153 710 178 685 q 127 772 127 736 m 378 771 q 404 834 378 808 q 466 860 430 860 q 528 834 502 860 q 553 771 553 808 q 528 710 553 735 q 466 685 502 685 q 405 710 431 685 q 378 771 378 735 z "},"ã":{"ha":681,"x_min":37,"x_max":659,"o":"m 382 311 l 382 433 q 370 503 382 483 q 307 524 357 524 q 245 512 267 524 q 222 488 222 500 q 238 463 222 479 q 254 422 254 447 q 228 362 254 387 q 161 336 201 336 q 98 360 125 336 q 72 419 72 385 q 143 520 72 479 q 339 562 214 562 q 502 538 436 562 q 567 428 567 513 l 567 142 q 608 68 567 68 q 640 81 620 68 l 659 50 q 525 -17 601 -17 q 392 65 446 -17 q 195 -17 303 -17 q 79 21 121 -17 q 37 117 37 60 q 382 311 37 298 m 382 187 l 382 275 q 254 247 290 272 q 218 161 218 221 q 241 89 218 115 q 298 62 263 62 q 360 89 338 62 q 382 187 382 115 m 534 859 l 553 859 q 505 728 549 770 q 406 685 462 685 q 304 711 375 685 q 208 737 234 737 q 149 686 169 737 l 129 686 q 185 821 140 783 q 273 860 231 860 q 377 833 298 860 q 479 806 456 806 q 534 859 519 806 z "},"å":{"ha":681,"x_min":37,"x_max":659,"o":"m 382 311 l 382 433 q 370 503 382 483 q 307 524 357 524 q 245 512 267 524 q 222 488 222 500 q 238 463 222 479 q 254 422 254 447 q 228 362 254 387 q 161 336 201 336 q 98 360 125 336 q 72 419 72 385 q 143 520 72 479 q 339 562 214 562 q 502 538 436 562 q 567 428 567 513 l 567 142 q 608 68 567 68 q 640 81 620 68 l 659 50 q 525 -17 601 -17 q 392 65 446 -17 q 195 -17 303 -17 q 79 21 121 -17 q 37 117 37 60 q 382 311 37 298 m 382 187 l 382 275 q 254 247 290 272 q 218 161 218 221 q 241 89 218 115 q 298 62 263 62 q 360 89 338 62 q 382 187 382 115 m 215 770 q 252 859 215 823 q 341 896 290 896 q 430 859 393 896 q 467 770 467 823 q 430 680 467 717 q 341 643 393 643 q 252 680 290 643 q 215 770 215 718 m 420 770 q 397 825 420 802 q 341 848 374 848 q 285 825 309 848 q 262 770 262 802 q 285 714 262 737 q 341 690 309 690 q 397 714 374 690 q 420 770 420 737 z "},"ç":{"ha":593,"x_min":37,"x_max":579,"o":"m 204 -283 l 204 -237 q 261 -245 248 -245 q 345 -200 345 -245 q 281 -160 345 -160 q 297 -14 297 -75 q 110 82 182 3 q 37 267 37 162 q 128 474 37 385 q 347 562 218 562 q 502 519 437 562 q 567 407 567 476 q 541 344 567 370 q 471 318 514 318 q 405 344 432 318 q 378 408 378 370 q 414 478 378 459 q 428 497 428 486 q 404 516 428 509 q 353 524 380 524 q 271 484 294 524 q 248 293 248 444 q 266 81 248 132 q 358 29 283 29 q 542 179 500 29 l 579 179 q 345 -17 549 -8 q 342 -74 342 -37 q 441 -102 408 -74 q 475 -174 475 -130 q 424 -263 475 -231 q 321 -296 373 -296 q 204 -283 267 -296 z "},"é":{"ha":593,"x_min":35,"x_max":575,"o":"m 575 304 l 241 304 l 241 216 q 260 73 241 113 q 346 33 279 33 q 456 71 405 33 q 534 189 507 109 l 575 189 q 482 35 550 86 q 319 -17 414 -17 q 112 72 190 -17 q 35 277 35 161 q 113 475 35 388 q 310 562 192 562 q 487 498 412 562 q 575 304 562 435 m 241 349 l 387 349 l 387 406 q 367 502 387 479 q 313 524 347 524 q 261 504 280 524 q 241 404 241 484 l 241 349 m 276 886 l 516 886 l 218 661 l 193 661 l 276 886 z "},"è":{"ha":593,"x_min":35,"x_max":575,"o":"m 575 304 l 241 304 l 241 216 q 260 73 241 113 q 346 33 279 33 q 456 71 405 33 q 534 189 507 109 l 575 189 q 482 35 550 86 q 319 -17 414 -17 q 112 72 190 -17 q 35 277 35 161 q 113 475 35 388 q 310 562 192 562 q 487 498 412 562 q 575 304 562 435 m 241 349 l 387 349 l 387 406 q 367 502 387 479 q 313 524 347 524 q 261 504 280 524 q 241 404 241 484 l 241 349 m 349 886 l 433 661 l 408 661 l 109 886 l 349 886 z "},"ê":{"ha":593,"x_min":35,"x_max":575,"o":"m 575 304 l 241 304 l 241 216 q 260 73 241 113 q 346 33 279 33 q 456 71 405 33 q 534 189 507 109 l 575 189 q 482 35 550 86 q 319 -17 414 -17 q 112 72 190 -17 q 35 277 35 161 q 113 475 35 388 q 310 562 192 562 q 487 498 412 562 q 575 304 562 435 m 241 349 l 387 349 l 387 406 q 367 502 387 479 q 313 524 347 524 q 261 504 280 524 q 241 404 241 484 l 241 349 m 218 895 l 412 895 l 528 647 l 505 647 l 315 789 l 127 647 l 102 647 l 218 895 z "},"ë":{"ha":593,"x_min":35,"x_max":575,"o":"m 575 304 l 241 304 l 241 216 q 260 73 241 113 q 346 33 279 33 q 456 71 405 33 q 534 189 507 109 l 575 189 q 482 35 550 86 q 319 -17 414 -17 q 112 72 190 -17 q 35 277 35 161 q 113 475 35 388 q 310 562 192 562 q 487 498 412 562 q 575 304 562 435 m 241 349 l 387 349 l 387 406 q 367 502 387 479 q 313 524 347 524 q 261 504 280 524 q 241 404 241 484 l 241 349 m 100 772 q 125 834 100 808 q 187 860 151 860 q 249 834 223 860 q 275 772 275 808 q 249 710 275 736 q 187 685 223 685 q 125 710 151 685 q 100 772 100 736 m 351 771 q 376 834 351 808 q 438 860 402 860 q 500 834 474 860 q 526 771 526 808 q 500 710 526 735 q 438 685 474 685 q 377 710 403 685 q 351 771 351 735 z "},"í":{"ha":376,"x_min":35,"x_max":391,"o":"m 285 562 l 285 41 l 338 41 l 338 0 l 35 0 l 35 41 l 100 41 l 100 504 l 35 504 l 35 546 l 121 546 q 233 554 188 546 q 285 562 279 562 m 151 886 l 391 886 l 93 661 l 68 661 l 151 886 z "},"ì":{"ha":376,"x_min":-16,"x_max":338,"o":"m 285 562 l 285 41 l 338 41 l 338 0 l 35 0 l 35 41 l 100 41 l 100 504 l 35 504 l 35 546 l 121 546 q 233 554 188 546 q 285 562 279 562 m 224 886 l 308 661 l 283 661 l -16 886 l 224 886 z "},"î":{"ha":376,"x_min":-22,"x_max":404,"o":"m 285 562 l 285 41 l 338 41 l 338 0 l 35 0 l 35 41 l 100 41 l 100 504 l 35 504 l 35 546 l 121 546 q 233 554 188 546 q 285 562 279 562 m 93 895 l 287 895 l 404 647 l 380 647 l 190 789 l 3 647 l -22 647 l 93 895 z "},"ï":{"ha":376,"x_min":-25,"x_max":401,"o":"m 285 562 l 285 41 l 338 41 l 338 0 l 35 0 l 35 41 l 100 41 l 100 504 l 35 504 l 35 546 l 121 546 q 233 554 188 546 q 285 562 279 562 m -25 772 q 0 834 -25 808 q 62 860 26 860 q 124 834 98 860 q 150 772 150 808 q 124 710 150 736 q 62 685 98 685 q 0 710 26 685 q -25 772 -25 736 m 226 771 q 252 834 226 808 q 313 860 277 860 q 375 834 349 860 q 401 771 401 808 q 375 710 401 735 q 313 685 349 685 q 252 710 278 685 q 226 771 226 735 z "},"ñ":{"ha":753,"x_min":21,"x_max":734,"o":"m 285 562 l 285 447 l 288 447 q 489 562 359 562 q 590 538 547 562 q 645 488 633 513 q 657 411 657 463 l 657 41 l 734 41 l 734 0 l 393 0 l 393 41 l 472 41 l 472 421 q 458 488 472 473 q 419 504 444 504 q 335 461 385 504 q 285 311 285 418 l 285 41 l 364 41 l 364 0 l 21 0 l 21 41 l 100 41 l 100 504 l 22 504 l 22 546 l 72 546 q 205 554 139 546 l 265 562 l 285 562 m 571 859 l 590 859 q 542 728 585 770 q 443 685 498 685 q 341 711 412 685 q 244 737 271 737 q 186 686 205 737 l 165 686 q 222 821 176 783 q 310 860 268 860 q 414 833 335 860 q 515 806 492 806 q 571 859 555 806 z "},"ó":{"ha":681,"x_min":40,"x_max":640,"o":"m 339 -17 q 121 70 203 -17 q 40 272 40 157 q 123 475 40 389 q 339 562 205 562 q 557 476 474 562 q 640 272 640 391 q 558 68 640 154 q 339 -17 475 -17 m 339 528 q 281 510 303 528 q 255 457 260 493 q 250 272 250 422 q 255 93 250 126 q 282 39 259 60 q 343 18 304 18 q 398 36 374 18 q 426 101 421 54 q 431 261 431 149 q 417 482 431 437 q 339 528 404 528 m 304 886 l 545 886 l 246 661 l 221 661 l 304 886 z "},"ò":{"ha":681,"x_min":40,"x_max":640,"o":"m 339 -17 q 121 70 203 -17 q 40 272 40 157 q 123 475 40 389 q 339 562 205 562 q 557 476 474 562 q 640 272 640 391 q 558 68 640 154 q 339 -17 475 -17 m 339 528 q 281 510 303 528 q 255 457 260 493 q 250 272 250 422 q 255 93 250 126 q 282 39 259 60 q 343 18 304 18 q 398 36 374 18 q 426 101 421 54 q 431 261 431 149 q 417 482 431 437 q 339 528 404 528 m 378 886 l 461 661 l 436 661 l 138 886 l 378 886 z "},"ô":{"ha":681,"x_min":40,"x_max":640,"o":"m 339 -17 q 121 70 203 -17 q 40 272 40 157 q 123 475 40 389 q 339 562 205 562 q 557 476 474 562 q 640 272 640 391 q 558 68 640 154 q 339 -17 475 -17 m 339 528 q 281 510 303 528 q 255 457 260 493 q 250 272 250 422 q 255 93 250 126 q 282 39 259 60 q 343 18 304 18 q 398 36 374 18 q 426 101 421 54 q 431 261 431 149 q 417 482 431 437 q 339 528 404 528 m 246 895 l 440 895 l 557 647 l 534 647 l 343 789 l 156 647 l 131 647 l 246 895 z "},"ö":{"ha":681,"x_min":40,"x_max":640,"o":"m 339 -17 q 121 70 203 -17 q 40 272 40 157 q 123 475 40 389 q 339 562 205 562 q 557 476 474 562 q 640 272 640 391 q 558 68 640 154 q 339 -17 475 -17 m 339 528 q 281 510 303 528 q 255 457 260 493 q 250 272 250 422 q 255 93 250 126 q 282 39 259 60 q 343 18 304 18 q 398 36 374 18 q 426 101 421 54 q 431 261 431 149 q 417 482 431 437 q 339 528 404 528 m 127 772 q 153 834 127 808 q 215 860 178 860 q 277 834 251 860 q 302 772 302 808 q 277 710 302 736 q 215 685 251 685 q 153 710 178 685 q 127 772 127 736 m 378 771 q 404 834 378 808 q 466 860 430 860 q 528 834 502 860 q 553 771 553 808 q 528 710 553 735 q 466 685 502 685 q 405 710 431 685 q 378 771 378 735 z "},"õ":{"ha":681,"x_min":40,"x_max":640,"o":"m 339 -17 q 121 70 203 -17 q 40 272 40 157 q 123 475 40 389 q 339 562 205 562 q 557 476 474 562 q 640 272 640 391 q 558 68 640 154 q 339 -17 475 -17 m 339 528 q 281 510 303 528 q 255 457 260 493 q 250 272 250 422 q 255 93 250 126 q 282 39 259 60 q 343 18 304 18 q 398 36 374 18 q 426 101 421 54 q 431 261 431 149 q 417 482 431 437 q 339 528 404 528 m 534 859 l 553 859 q 505 728 549 770 q 406 685 462 685 q 304 711 375 685 q 208 737 234 737 q 149 686 169 737 l 129 686 q 185 821 140 783 q 273 860 231 860 q 377 833 298 860 q 479 806 456 806 q 534 859 519 806 z "},"ú":{"ha":753,"x_min":18,"x_max":730,"o":"m 653 546 l 653 40 l 730 40 l 730 0 l 616 0 q 506 -4 531 0 q 468 -9 480 -9 l 468 102 l 465 102 q 384 20 438 50 q 265 -9 329 -9 q 161 15 204 -9 q 107 69 118 39 q 96 163 96 98 l 96 504 l 18 504 l 18 546 l 281 546 l 281 184 q 288 75 281 102 q 326 49 294 49 q 401 78 359 49 q 455 144 442 107 q 468 249 468 182 l 468 504 l 378 504 l 378 546 l 653 546 m 340 886 l 581 886 l 282 661 l 257 661 l 340 886 z "},"ù":{"ha":753,"x_min":18,"x_max":730,"o":"m 653 546 l 653 40 l 730 40 l 730 0 l 616 0 q 506 -4 531 0 q 468 -9 480 -9 l 468 102 l 465 102 q 384 20 438 50 q 265 -9 329 -9 q 161 15 204 -9 q 107 69 118 39 q 96 163 96 98 l 96 504 l 18 504 l 18 546 l 281 546 l 281 184 q 288 75 281 102 q 326 49 294 49 q 401 78 359 49 q 455 144 442 107 q 468 249 468 182 l 468 504 l 378 504 l 378 546 l 653 546 m 414 886 l 497 661 l 472 661 l 174 886 l 414 886 z "},"û":{"ha":753,"x_min":18,"x_max":730,"o":"m 653 546 l 653 40 l 730 40 l 730 0 l 616 0 q 506 -4 531 0 q 468 -9 480 -9 l 468 102 l 465 102 q 384 20 438 50 q 265 -9 329 -9 q 161 15 204 -9 q 107 69 118 39 q 96 163 96 98 l 96 504 l 18 504 l 18 546 l 281 546 l 281 184 q 288 75 281 102 q 326 49 294 49 q 401 78 359 49 q 455 144 442 107 q 468 249 468 182 l 468 504 l 378 504 l 378 546 l 653 546 m 282 895 l 476 895 l 593 647 l 570 647 l 379 789 l 192 647 l 167 647 l 282 895 z "},"ü":{"ha":753,"x_min":18,"x_max":730,"o":"m 653 546 l 653 40 l 730 40 l 730 0 l 616 0 q 506 -4 531 0 q 468 -9 480 -9 l 468 102 l 465 102 q 384 20 438 50 q 265 -9 329 -9 q 161 15 204 -9 q 107 69 118 39 q 96 163 96 98 l 96 504 l 18 504 l 18 546 l 281 546 l 281 184 q 288 75 281 102 q 326 49 294 49 q 401 78 359 49 q 455 144 442 107 q 468 249 468 182 l 468 504 l 378 504 l 378 546 l 653 546 m 164 772 q 190 834 164 808 q 252 860 215 860 q 313 834 288 860 q 339 772 339 808 q 313 710 339 736 q 252 685 288 685 q 190 710 215 685 q 164 772 164 736 m 415 771 q 441 834 415 808 q 503 860 467 860 q 564 834 538 860 q 590 771 590 808 q 564 710 590 735 q 503 685 538 685 q 441 710 467 685 q 415 771 415 735 z "},"†":{"ha":681,"x_min":29,"x_max":652,"o":"m 355 -340 l 317 -340 l 314 -330 l 318 -259 q 293 -19 318 -192 q 214 290 267 154 q 317 521 307 394 q 229 478 286 515 q 126 440 172 440 q 60 466 90 440 q 29 542 29 492 q 60 619 29 593 q 126 646 92 646 q 234 605 174 646 q 317 564 293 564 q 280 694 319 613 q 240 818 240 776 q 270 896 240 869 q 342 924 300 924 q 414 892 385 924 q 443 822 443 861 q 400 691 443 778 q 361 564 357 605 q 433 595 392 564 q 554 643 501 643 q 623 614 594 643 q 652 542 652 585 q 622 467 652 497 q 553 437 593 437 q 507 447 526 437 q 444 485 488 456 q 361 521 399 515 q 461 290 368 412 q 355 -340 370 37 z "},"°":{"ha":555,"x_min":37,"x_max":518,"o":"m 37 688 q 108 858 37 787 q 278 928 178 928 q 448 858 377 928 q 518 688 518 787 q 448 517 518 588 q 278 447 377 447 q 108 517 178 447 q 37 688 37 588 m 421 688 q 379 789 421 747 q 278 831 337 831 q 177 789 218 831 q 135 688 135 747 q 177 587 135 629 q 278 545 218 545 q 379 587 337 545 q 421 688 421 629 z "},"¢":{"ha":593,"x_min":37,"x_max":579,"o":"m 419 332 l 313 36 q 361 29 336 29 q 542 179 497 29 l 579 179 q 494 30 564 77 q 334 -17 423 -17 q 294 -14 309 -17 l 195 -289 l 158 -289 l 260 -7 q 100 93 163 18 q 37 267 37 168 q 128 474 37 385 q 347 562 218 562 q 460 542 408 562 l 545 771 l 579 771 l 490 526 q 566 407 566 481 q 539 344 566 370 q 471 318 513 318 q 419 332 442 318 m 282 53 l 393 357 q 378 408 378 378 q 412 478 378 458 q 427 496 427 486 q 351 524 427 524 q 264 470 282 524 q 245 275 245 416 q 282 53 245 80 z "},"£":{"ha":681,"x_min":25,"x_max":654,"o":"m 354 429 l 511 429 l 511 385 l 361 385 q 322 186 366 290 q 510 157 442 157 q 584 183 555 157 q 612 257 612 209 l 654 257 q 596 50 654 112 q 461 -12 538 -12 q 262 64 365 -12 q 131 -12 197 -12 q 53 17 80 -12 q 25 89 25 46 q 64 173 25 140 q 175 207 103 207 q 232 200 191 207 q 196 305 219 256 q 161 385 172 355 l 33 385 l 33 429 l 142 429 q 109 596 109 519 q 194 816 109 728 q 419 904 280 904 q 582 850 520 904 q 643 720 643 796 q 612 637 643 669 q 534 606 582 606 q 471 632 492 606 q 449 690 449 659 q 471 748 449 723 q 529 772 492 772 q 552 768 539 772 q 568 764 564 764 q 578 775 578 764 q 539 832 578 799 q 440 865 501 865 q 328 822 370 865 q 285 710 285 779 q 315 563 285 649 q 354 429 345 476 m 214 100 q 129 140 161 140 q 85 126 103 140 q 66 85 66 111 q 83 47 66 62 q 123 32 100 32 q 214 100 173 32 z "},"§":{"ha":753,"x_min":61,"x_max":703,"o":"m 572 83 q 656 -98 656 12 q 579 -276 656 -211 q 368 -340 503 -340 q 182 -291 242 -340 q 122 -180 122 -241 q 150 -110 122 -140 q 227 -81 177 -81 q 294 -105 267 -81 q 321 -167 321 -129 q 300 -217 321 -193 q 279 -256 279 -241 q 370 -296 279 -296 q 481 -263 433 -296 q 529 -178 529 -231 q 486 -89 529 -127 q 325 1 442 -51 q 61 278 61 118 q 92 397 61 349 q 207 497 122 444 q 98 692 98 574 q 178 857 98 791 q 380 922 257 922 q 570 871 492 922 q 648 749 648 821 q 620 679 648 707 q 550 652 592 652 q 481 678 506 652 q 456 737 456 704 q 485 806 456 779 q 501 828 501 819 q 468 866 501 851 q 387 880 435 880 q 277 845 319 880 q 236 765 236 809 q 278 683 236 721 q 453 585 319 646 q 644 456 586 524 q 703 294 703 389 q 572 83 703 157 m 250 469 q 170 368 170 435 q 322 219 170 290 q 533 114 475 149 q 614 215 614 160 q 408 394 614 296 q 250 469 275 458 z "},"•":{"ha":486,"x_min":49,"x_max":437,"o":"m 437 458 q 380 321 437 378 q 243 264 323 264 q 106 321 163 264 q 49 458 49 378 q 106 596 49 538 q 243 653 163 653 q 380 596 323 653 q 437 458 437 538 z "},"¶":{"ha":750,"x_min":-5,"x_max":757,"o":"m 443 856 l 443 -343 l 372 -343 l 372 257 q 82 357 169 264 q -5 590 -5 451 q 52 780 -5 709 q 176 880 110 850 q 464 909 243 909 l 757 909 l 757 856 l 640 856 l 640 -343 l 571 -343 l 571 856 l 443 856 z "},"ß":{"ha":681,"x_min":21,"x_max":646,"o":"m 301 0 l 21 0 l 21 41 l 90 41 l 90 665 q 153 849 90 776 q 351 922 216 922 q 549 859 478 922 q 621 715 621 796 q 578 595 621 653 q 411 515 535 538 l 411 513 q 646 243 646 476 q 584 63 646 134 q 440 -8 523 -8 q 368 12 396 -8 q 340 65 340 32 q 376 106 340 106 q 421 60 410 106 q 446 33 428 33 q 476 78 476 33 q 455 162 476 110 q 435 269 435 214 l 435 321 q 420 452 435 413 q 334 490 406 490 l 334 532 q 405 556 385 532 q 424 669 424 580 l 424 739 q 404 856 424 832 q 350 880 385 880 q 294 858 313 880 q 275 746 275 836 l 275 41 l 301 41 l 301 0 z "},"®":{"ha":1038,"x_min":39,"x_max":1000,"o":"m 39 460 q 180 799 39 658 q 519 940 321 940 q 859 799 718 940 q 1000 460 1000 658 q 859 120 1000 262 q 519 -21 718 -21 q 180 120 321 -21 q 39 460 39 262 m 939 461 q 815 756 939 634 q 518 879 692 879 q 222 756 345 879 q 100 461 100 634 q 222 164 100 288 q 518 40 345 40 q 815 164 691 40 q 939 461 939 288 m 262 739 l 509 739 q 703 694 656 739 q 749 590 749 649 q 628 450 749 484 l 721 281 q 791 214 753 220 l 791 191 l 628 191 l 489 440 l 457 440 l 457 306 q 471 233 457 250 q 539 214 486 216 l 539 191 l 252 191 l 252 214 q 311 235 300 212 q 322 306 322 258 l 322 627 q 308 702 322 690 q 262 715 294 713 l 262 739 m 457 710 l 457 475 q 493 472 477 472 q 571 505 538 472 q 603 593 603 537 q 484 710 603 710 l 457 710 z "},"©":{"ha":1038,"x_min":39,"x_max":1000,"o":"m 39 460 q 180 799 39 658 q 519 940 321 940 q 859 799 718 940 q 1000 460 1000 658 q 859 120 1000 262 q 519 -21 718 -21 q 180 120 321 -21 q 39 460 39 262 m 939 461 q 815 756 939 634 q 518 879 692 879 q 222 756 345 879 q 100 461 100 634 q 222 164 100 288 q 518 40 345 40 q 815 164 691 40 q 939 461 939 288 m 747 750 l 747 571 l 721 571 q 658 682 705 646 q 554 718 611 718 q 424 651 468 718 q 379 471 379 584 q 435 267 379 318 q 551 216 491 216 q 728 311 654 216 l 728 262 q 513 176 644 176 q 309 251 391 176 q 227 453 227 326 q 313 668 227 584 q 525 751 399 751 q 632 733 580 751 q 690 715 684 715 q 721 750 717 715 l 747 750 z "},"™":{"ha":1389,"x_min":-4,"x_max":1393,"o":"m -4 909 l 522 909 l 522 757 l 498 757 q 367 875 493 875 l 342 875 l 342 476 q 352 404 342 421 q 411 386 363 386 l 411 361 l 103 361 l 103 386 q 162 402 151 389 q 172 479 172 415 l 172 875 l 150 875 q 17 757 23 875 l -4 757 l -4 909 m 597 909 l 846 909 l 1003 574 l 1158 909 l 1393 909 l 1393 885 q 1336 866 1347 885 q 1325 793 1325 848 l 1325 473 q 1336 407 1325 425 q 1393 386 1346 389 l 1393 361 l 1080 361 l 1080 386 q 1142 399 1126 386 q 1158 473 1158 412 l 1158 817 l 942 363 l 925 363 l 710 817 l 710 475 q 722 404 710 421 q 787 386 733 387 l 787 361 l 597 361 l 597 386 q 659 403 647 388 q 671 478 671 418 l 671 794 q 659 868 671 850 q 597 885 646 886 l 597 909 z "},"´":{"ha":463,"x_min":111,"x_max":435,"o":"m 195 886 l 435 886 l 136 661 l 111 661 l 195 886 z "},"¨":{"ha":463,"x_min":18,"x_max":444,"o":"m 18 772 q 44 834 18 808 q 106 860 69 860 q 168 834 142 860 q 193 772 193 808 q 168 710 193 736 q 106 685 142 685 q 44 710 69 685 q 18 772 18 736 m 269 771 q 295 834 269 808 q 357 860 321 860 q 418 834 393 860 q 444 771 444 808 q 418 710 444 735 q 357 685 393 685 q 295 710 321 685 q 269 771 269 735 z "},"≠":{"ha":762,"x_min":21,"x_max":750,"o":"m 750 189 l 329 189 l 204 -35 l 136 4 l 239 189 l 21 189 l 21 265 l 282 265 l 389 458 l 21 458 l 21 534 l 432 534 l 558 762 l 627 724 l 521 534 l 750 534 l 750 458 l 479 458 l 371 265 l 750 265 l 750 189 z "},"Æ":{"ha":1346,"x_min":26,"x_max":1305,"o":"m 608 254 l 273 254 l 224 149 q 201 79 201 100 q 217 54 201 62 q 297 45 233 45 l 325 45 l 325 0 l 26 0 l 26 45 l 46 45 q 119 61 98 45 q 171 144 139 77 l 517 865 l 412 865 l 416 909 l 1255 909 l 1268 657 l 1221 657 q 990 865 1160 865 l 831 865 l 831 486 l 860 486 q 1028 647 1000 486 l 1072 647 l 1072 273 l 1023 273 q 980 398 1017 355 q 860 441 943 441 l 831 441 l 831 45 l 986 45 q 1260 301 1179 45 l 1305 301 l 1283 0 l 493 0 l 493 45 l 608 45 l 608 254 m 568 865 l 297 301 l 608 301 l 608 865 l 568 865 z "},"Ø":{"ha":897,"x_min":36,"x_max":864,"o":"m 172 103 l 71 -12 l 36 20 l 142 139 q 41 458 41 269 q 163 793 41 664 q 450 922 284 922 q 726 806 610 922 l 829 922 l 864 892 l 758 771 q 856 453 856 651 q 739 115 856 242 q 453 -12 622 -12 q 172 103 286 -12 m 294 318 l 600 664 q 561 831 597 785 q 449 878 524 878 q 344 838 381 878 q 300 713 307 798 q 293 460 293 629 l 294 318 m 602 593 l 294 249 q 346 69 307 106 q 447 32 385 32 q 550 69 515 32 q 594 178 585 106 q 604 437 604 250 l 602 593 z "},"∞":{"ha":990,"x_min":36,"x_max":954,"o":"m 443 453 q 551 604 491 568 q 694 640 610 640 q 879 561 804 640 q 954 357 954 482 q 879 151 954 231 q 717 72 803 72 q 601 115 652 72 q 489 267 550 157 q 269 109 410 109 q 102 179 168 109 q 36 358 36 250 q 96 536 36 465 q 244 607 157 607 q 345 578 298 607 q 443 453 392 550 m 509 315 q 600 179 552 222 q 720 136 648 136 q 860 198 805 136 q 916 357 916 260 q 859 519 916 452 q 724 587 802 587 q 657 573 686 587 q 607 531 629 558 q 564 452 585 503 l 509 315 m 416 378 l 424 400 q 243 546 359 546 q 121 494 168 546 q 74 359 74 442 q 119 219 74 276 q 229 161 164 161 q 331 205 285 161 q 416 378 376 250 z "},"±":{"ha":928,"x_min":89,"x_max":836,"o":"m 89 639 l 400 639 l 400 950 l 525 950 l 525 639 l 836 639 l 836 514 l 525 514 l 525 203 l 400 203 l 400 514 l 89 514 l 89 639 m 89 125 l 836 125 l 836 0 l 89 0 l 89 125 z "},"≤":{"ha":762,"x_min":40,"x_max":730,"o":"m 730 163 l 40 482 l 40 568 l 730 888 l 730 802 l 129 525 l 730 249 l 730 163 m 730 0 l 40 0 l 40 76 l 730 76 l 730 0 z "},"≥":{"ha":762,"x_min":40,"x_max":730,"o":"m 730 482 l 40 163 l 40 249 l 642 525 l 40 802 l 40 888 l 730 568 l 730 482 m 730 0 l 40 0 l 40 76 l 730 76 l 730 0 z "},"¥":{"ha":897,"x_min":26,"x_max":882,"o":"m 92 865 l 26 865 l 26 909 l 452 909 l 452 865 l 346 865 l 551 479 l 707 790 q 727 846 727 831 q 686 865 727 865 l 650 865 l 650 909 l 882 909 l 882 865 q 779 823 801 865 l 572 425 l 827 425 l 827 380 l 572 380 l 572 254 l 827 254 l 827 210 l 572 210 l 572 45 l 713 45 l 713 0 l 210 0 l 210 45 l 350 45 l 350 210 l 72 210 l 72 254 l 350 254 l 350 380 l 72 380 l 72 425 l 342 425 l 92 865 z "},"µ":{"ha":772,"x_min":37,"x_max":760,"o":"m 86 546 l 275 546 l 275 218 q 284 103 275 132 q 332 74 292 74 q 444 157 397 74 l 444 546 l 633 546 l 633 210 q 645 103 633 122 q 679 83 656 83 q 730 180 722 83 l 760 180 q 703 27 755 75 q 585 -20 651 -20 q 450 87 481 -20 q 253 -20 355 -20 q 151 20 202 -20 q 165 -94 151 -45 l 184 -164 q 191 -210 191 -186 q 169 -274 191 -250 q 110 -298 148 -298 q 37 -220 37 -298 q 64 -87 37 -190 q 86 176 86 3 l 86 546 z "},"∂":{"ha":686,"x_min":45,"x_max":675,"o":"m 200 760 l 170 760 q 427 965 258 965 q 605 879 536 965 q 675 624 675 793 q 563 180 675 381 q 273 -21 452 -21 q 106 41 168 -21 q 45 207 45 102 q 158 492 45 369 q 418 615 271 615 q 629 486 568 615 l 632 486 q 639 612 639 584 q 576 800 639 731 q 404 868 513 868 q 200 760 273 868 m 618 427 q 425 579 563 579 q 231 450 304 579 q 158 179 158 321 q 195 62 158 106 q 292 18 231 18 q 481 129 384 18 q 618 427 578 239 z "},"∑":{"ha":990,"x_min":20,"x_max":965,"o":"m 965 161 q 928 -1 943 77 q 905 -150 913 -79 q 836 -139 863 -142 q 799 -135 809 -135 l 100 -135 q 60 -137 86 -135 q 20 -139 33 -139 l 504 414 l 22 1044 q 106 1037 70 1040 q 167 1035 142 1035 l 857 1035 l 865 814 l 838 814 q 802 909 817 883 q 747 954 787 936 q 696 968 726 963 q 625 972 666 972 l 260 972 l 639 475 l 231 4 l 746 4 q 866 39 832 4 q 933 161 901 75 l 965 161 z "},"∏":{"ha":1143,"x_min":35,"x_max":1116,"o":"m 1116 -140 l 689 -140 l 689 -109 q 797 -81 770 -109 q 824 4 824 -53 l 824 966 l 326 966 l 326 4 q 353 -81 326 -53 q 461 -109 380 -109 l 461 -140 l 35 -140 l 35 -109 q 143 -81 117 -109 q 170 4 170 -53 l 170 873 q 137 977 170 942 q 37 1011 104 1011 l 37 1043 l 1113 1043 l 1113 1011 q 1014 977 1046 1011 q 981 873 981 942 l 981 4 q 1007 -81 981 -53 q 1116 -109 1033 -109 l 1116 -140 z "},"π":{"ha":762,"x_min":14,"x_max":736,"o":"m 736 210 q 685 41 732 104 q 571 -22 637 -22 q 477 40 517 -22 q 437 231 437 102 q 438 285 437 259 q 441 334 439 311 l 465 557 l 309 557 q 242 53 268 134 q 153 -27 216 -27 q 103 -6 127 -27 q 79 50 79 15 q 129 137 79 81 q 183 239 178 193 l 224 557 l 158 557 q 105 544 131 557 q 66 513 79 530 l 37 469 l 14 469 q 95 624 47 572 q 207 676 144 676 l 725 676 l 725 557 l 550 557 q 537 394 542 475 q 533 231 533 313 q 559 140 533 175 q 623 106 585 106 q 673 125 647 106 q 703 176 699 144 q 706 199 705 191 q 707 210 707 208 l 736 210 z "},"∫":{"ha":380,"x_min":-20,"x_max":381,"o":"m 381 1194 q 361 1150 381 1167 q 310 1133 341 1133 q 269 1150 285 1133 q 239 1167 254 1167 q 221 1157 227 1167 q 214 1128 214 1147 q 228 954 214 1105 q 241 581 241 804 q 220 99 241 238 q 167 -92 200 -39 q 121 -134 149 -120 q 63 -149 93 -149 q 5 -125 30 -149 q -20 -67 -20 -101 q -3 -23 -20 -41 q 41 -5 14 -5 q 85 -27 64 -5 q 115 -50 106 -50 q 142 -19 132 -50 q 152 85 152 11 q 148 218 152 110 q 144 600 144 327 q 155 1033 144 926 q 183 1179 167 1139 q 230 1249 203 1226 q 287 1272 257 1272 q 353 1250 326 1272 q 381 1194 381 1228 z "},"ª":{"ha":449,"x_min":29,"x_max":433,"o":"m 253 772 l 253 846 q 245 888 253 876 q 205 900 237 900 q 150 878 150 900 q 160 862 150 872 q 171 839 171 852 q 154 802 171 817 q 110 787 136 787 q 69 802 86 787 q 52 838 52 817 q 97 897 52 872 q 229 922 143 922 q 349 901 324 922 q 374 842 374 879 l 374 671 q 400 627 374 627 q 422 635 408 627 l 433 615 q 347 576 395 576 q 260 625 292 576 q 131 576 203 576 q 56 599 83 576 q 29 657 29 622 q 253 772 29 765 m 253 699 l 253 750 q 170 733 193 748 q 147 682 147 718 q 200 624 147 624 q 253 699 253 624 z "},"º":{"ha":449,"x_min":31,"x_max":419,"o":"m 224 576 q 83 628 136 576 q 31 749 31 680 q 84 870 31 819 q 224 922 137 922 q 366 871 313 922 q 419 749 419 820 q 366 628 419 679 q 224 576 313 576 m 225 903 q 175 877 183 903 q 167 749 167 852 q 176 623 167 650 q 228 596 184 596 q 275 622 267 596 q 283 729 283 648 q 275 874 283 845 q 225 903 266 903 z "},"Ω":{"ha":1067,"x_min":47,"x_max":1021,"o":"m 1021 0 l 612 0 l 634 211 q 787 347 743 251 q 831 559 831 442 q 759 812 831 713 q 534 911 686 911 q 310 812 382 911 q 237 559 237 713 q 281 347 237 442 q 435 211 326 251 l 457 0 l 47 0 l 47 225 l 68 225 q 95 160 79 180 q 160 140 111 140 l 379 140 l 376 179 q 145 329 215 223 q 75 554 75 435 q 205 843 75 730 q 534 956 336 956 q 863 843 733 956 q 994 554 994 730 q 924 329 994 435 q 692 179 854 223 l 690 140 l 909 140 q 974 160 958 140 q 1001 225 990 180 l 1021 225 l 1021 0 z "},"æ":{"ha":1055,"x_min":62,"x_max":994,"o":"m 994 301 l 628 301 l 628 179 q 658 60 628 89 q 745 31 688 31 q 951 186 892 31 l 994 186 q 714 -17 935 -17 q 479 103 555 -17 q 236 -17 367 -17 q 110 20 157 -17 q 62 121 62 56 q 443 321 62 304 l 443 427 q 425 503 443 483 q 353 524 408 524 q 244 488 244 524 q 260 468 244 481 q 277 421 277 454 q 246 364 277 387 q 182 340 216 340 q 120 365 144 340 q 96 422 96 389 q 176 523 96 484 q 380 562 256 562 q 576 528 489 562 q 718 562 644 562 q 910 495 836 562 q 994 301 984 427 m 628 400 l 628 346 l 810 346 l 810 395 q 786 497 810 471 q 721 524 763 524 q 628 400 628 524 m 443 186 l 443 281 q 284 254 332 278 q 236 167 236 229 q 263 90 236 118 q 332 62 291 62 q 392 79 361 62 q 433 117 423 96 q 443 186 443 139 z "},"ø":{"ha":681,"x_min":40,"x_max":640,"o":"m 160 37 l 96 -35 l 69 -11 l 132 60 q 40 272 40 149 q 123 475 40 389 q 339 562 205 562 q 522 507 444 562 l 585 578 l 611 555 l 550 485 q 640 272 640 396 q 558 68 640 154 q 339 -17 475 -17 q 160 37 232 -17 m 250 197 l 428 399 q 406 503 427 479 q 339 528 386 528 q 253 443 258 528 q 250 197 248 359 m 431 347 l 253 146 q 343 18 253 18 q 409 45 387 18 q 431 111 431 73 l 431 222 l 431 347 z "},"¿":{"ha":593,"x_min":41,"x_max":548,"o":"m 326 314 l 366 314 q 374 176 374 231 q 351 60 374 116 q 244 -60 328 4 q 160 -180 160 -123 q 202 -270 160 -234 q 311 -305 243 -305 q 413 -279 370 -305 q 456 -233 456 -254 q 441 -221 456 -221 q 353 -138 353 -216 q 380 -72 353 -99 q 448 -45 408 -45 q 518 -76 488 -45 q 548 -155 548 -106 q 477 -292 548 -236 q 304 -347 406 -347 q 116 -272 191 -347 q 41 -83 41 -197 q 74 47 41 -15 q 225 188 108 109 q 326 314 327 257 m 448 485 q 416 408 448 440 q 339 376 384 376 q 263 408 294 376 q 231 485 231 439 q 263 561 231 529 q 339 592 294 592 q 416 560 384 592 q 448 485 448 528 z "},"¡":{"ha":376,"x_min":80,"x_max":296,"o":"m 170 303 l 213 303 l 213 273 q 252 14 213 178 q 291 -214 291 -150 q 262 -310 291 -276 q 185 -344 233 -344 q 113 -311 142 -344 q 84 -224 84 -279 q 127 11 84 -151 q 170 274 170 172 l 170 303 m 189 377 q 113 407 146 377 q 80 481 80 437 q 112 560 80 527 q 189 593 143 593 q 264 561 233 593 q 296 484 296 529 q 264 408 296 439 q 189 377 233 377 z "},"¬":{"ha":926,"x_min":89,"x_max":838,"o":"m 89 686 l 838 686 l 838 231 l 713 231 l 713 561 l 89 561 l 89 686 z "},"√":{"ha":762,"x_min":14,"x_max":715,"o":"m 715 1267 l 507 -53 l 170 644 l 36 579 l 14 625 l 216 725 l 490 165 l 667 1274 l 715 1267 z "},"ƒ":{"ha":694,"x_min":-109,"x_max":827,"o":"m 200 533 l 311 533 q 463 827 364 730 q 677 924 562 924 q 781 892 735 924 q 827 808 827 860 q 802 747 827 772 q 741 722 778 722 q 679 746 705 722 q 653 803 653 770 q 661 844 653 826 q 669 867 669 861 q 644 882 669 882 q 563 817 594 882 q 489 533 532 753 l 618 533 l 608 492 l 481 492 q 279 -190 385 -22 q 37 -357 173 -357 q -64 -323 -20 -357 q -109 -241 -109 -290 q -80 -184 -109 -205 q -14 -163 -51 -163 q 42 -185 24 -163 q 61 -237 61 -208 l 61 -288 q 92 -306 67 -306 q 160 -250 133 -306 q 215 -1 186 -193 q 266 316 248 231 q 286 416 283 401 q 301 492 288 431 l 193 492 l 200 533 z "},"≈":{"ha":762,"x_min":35,"x_max":728,"o":"m 693 593 l 728 593 q 663 431 713 488 q 536 375 612 375 q 330 454 471 375 q 187 507 236 507 q 66 380 86 507 l 35 380 q 98 542 48 485 q 221 599 148 599 q 294 586 253 599 q 446 513 334 572 q 576 471 526 471 q 693 593 674 471 m 693 330 l 728 330 q 663 169 713 225 q 536 113 612 113 q 354 178 471 113 q 187 244 237 244 q 66 118 86 244 l 35 118 q 98 278 48 222 q 221 335 148 335 q 297 320 253 335 q 446 250 341 306 q 576 208 526 208 q 693 330 674 208 z "},"∆":{"ha":850,"x_min":8,"x_max":844,"o":"m 453 956 l 844 0 l 8 0 l 453 956 m 403 718 l 100 68 l 672 68 l 403 718 z "},"«":{"ha":681,"x_min":25,"x_max":663,"o":"m 663 536 l 489 289 l 663 40 l 503 40 l 328 289 l 503 536 l 663 536 m 366 536 l 186 289 l 359 40 l 201 40 l 25 289 l 205 536 l 366 536 z "},"»":{"ha":681,"x_min":18,"x_max":656,"o":"m 18 40 l 192 289 l 18 536 l 178 536 l 353 289 l 178 40 l 18 40 m 315 40 l 494 289 l 321 536 l 479 536 l 656 289 l 475 40 l 315 40 z "},"…":{"ha":1389,"x_min":123,"x_max":1267,"o":"m 587 93 q 618 169 587 138 q 694 200 650 200 q 771 169 739 200 q 803 93 803 138 q 771 16 803 48 q 694 -16 739 -16 q 619 16 650 -16 q 587 93 587 48 m 123 93 q 155 169 123 138 q 231 200 186 200 q 307 169 275 200 q 339 93 339 138 q 307 16 339 48 q 231 -16 275 -16 q 155 16 186 -16 q 123 93 123 48 m 1051 96 q 1083 170 1051 139 q 1158 200 1114 200 q 1235 169 1202 200 q 1267 94 1267 138 q 1234 17 1267 49 q 1160 -16 1201 -16 q 1083 17 1114 -16 q 1051 96 1051 50 z "}," ":{"ha":340,"x_min":0,"x_max":0,"o":""},"À":{"ha":970,"x_min":21,"x_max":949,"o":"m 543 254 l 257 254 l 218 161 q 196 81 196 106 q 264 45 196 45 l 314 45 l 314 0 l 21 0 l 21 45 l 47 45 q 118 62 100 45 q 163 144 136 80 l 481 926 l 521 926 l 854 45 l 949 45 l 949 0 l 501 0 l 501 45 l 623 45 l 543 254 m 277 301 l 525 301 l 406 616 l 277 301 m 522 1222 l 606 997 l 581 997 l 282 1222 l 522 1222 z "},"Ã":{"ha":970,"x_min":21,"x_max":949,"o":"m 543 254 l 257 254 l 218 161 q 196 81 196 106 q 264 45 196 45 l 314 45 l 314 0 l 21 0 l 21 45 l 47 45 q 118 62 100 45 q 163 144 136 80 l 481 926 l 521 926 l 854 45 l 949 45 l 949 0 l 501 0 l 501 45 l 623 45 l 543 254 m 277 301 l 525 301 l 406 616 l 277 301 m 679 1194 l 698 1194 q 650 1063 693 1106 q 551 1021 606 1021 q 449 1047 519 1021 q 352 1073 378 1073 q 294 1022 313 1073 l 273 1022 q 330 1157 284 1118 q 418 1196 376 1196 q 522 1168 443 1196 q 623 1141 600 1141 q 679 1194 663 1141 z "},"Õ":{"ha":897,"x_min":41,"x_max":856,"o":"m 41 458 q 162 792 41 663 q 452 922 283 922 q 732 800 608 922 q 856 453 856 678 q 739 115 856 242 q 453 -12 622 -12 q 156 123 271 -12 q 41 458 41 258 m 603 454 q 595 730 603 663 q 555 837 587 796 q 449 878 523 878 q 350 845 387 878 q 303 739 313 812 q 294 456 294 667 q 302 179 294 247 q 343 72 310 112 q 449 32 377 32 q 546 64 509 32 q 593 169 584 96 q 603 454 603 241 m 643 1194 l 662 1194 q 614 1063 657 1106 q 515 1021 570 1021 q 413 1047 484 1021 q 316 1073 342 1073 q 258 1022 277 1073 l 237 1022 q 294 1157 248 1118 q 382 1196 340 1196 q 486 1168 407 1196 q 587 1141 564 1141 q 643 1194 627 1141 z "},"Œ":{"ha":1346,"x_min":39,"x_max":1301,"o":"m 828 865 l 828 482 l 857 482 q 1022 643 994 482 l 1068 643 l 1068 272 l 1022 272 q 857 437 1016 437 l 828 437 l 828 45 l 986 45 q 1257 300 1182 45 l 1301 300 l 1283 0 l 615 0 l 444 -4 q 154 133 269 -4 q 39 456 39 270 q 160 784 39 652 q 452 917 282 917 q 520 913 479 917 q 595 909 561 909 l 1251 909 l 1265 659 l 1221 659 q 1131 817 1185 769 q 986 865 1078 865 l 828 865 m 606 45 l 606 865 q 541 869 571 865 q 447 872 510 872 q 322 799 352 872 q 292 463 292 726 q 320 110 292 180 q 444 40 349 40 l 606 45 z "},"œ":{"ha":1055,"x_min":54,"x_max":1017,"o":"m 1013 302 l 657 302 l 657 186 q 688 59 657 88 q 779 31 720 31 q 974 186 918 31 l 1017 186 q 746 -17 966 -17 q 561 43 642 -17 q 357 -17 479 -17 q 137 68 220 -17 q 54 271 54 153 q 142 477 54 392 q 370 562 231 562 q 561 504 481 562 q 741 562 647 562 q 933 492 861 562 q 1013 302 1006 422 m 471 211 l 471 387 q 452 494 471 460 q 364 528 434 528 q 281 492 300 528 q 262 372 262 456 l 264 192 q 281 54 265 90 q 367 18 297 18 q 454 60 438 18 q 471 211 471 101 m 657 390 l 657 347 l 829 347 l 829 410 q 810 493 829 465 q 743 521 791 521 q 680 498 703 521 q 657 390 657 475 z "},"–":{"ha":694,"x_min":-8,"x_max":703,"o":"m -8 335 l 703 335 l 703 210 l -8 210 l -8 335 z "},"—":{"ha":1389,"x_min":-8,"x_max":1397,"o":"m -8 335 l 1397 335 l 1397 210 l -8 210 l -8 335 z "},"“":{"ha":681,"x_min":62,"x_max":628,"o":"m 285 922 l 293 884 q 125 704 125 830 q 144 664 125 664 q 161 679 152 664 q 228 713 183 713 q 293 685 264 713 q 322 614 322 656 q 291 534 322 567 q 208 501 260 501 q 102 557 141 501 q 62 682 62 613 q 118 826 62 759 q 285 922 173 892 m 590 922 l 599 884 q 431 704 431 830 q 450 664 431 664 q 467 679 458 664 q 533 713 489 713 q 599 685 570 713 q 628 614 628 656 q 597 534 628 567 q 514 501 566 501 q 408 557 447 501 q 368 682 368 614 q 423 826 368 759 q 590 922 478 892 z "},"”":{"ha":681,"x_min":53,"x_max":618,"o":"m 396 501 l 387 541 q 555 720 555 593 q 536 760 555 760 q 519 745 528 760 q 453 711 499 711 q 387 740 416 711 q 358 810 358 768 q 389 889 358 857 q 472 922 420 922 q 579 866 540 922 q 618 742 618 810 q 563 598 618 665 q 396 501 508 531 m 90 501 l 82 541 q 250 720 250 593 q 231 760 250 760 q 214 745 223 760 q 147 711 194 711 q 81 739 110 711 q 53 810 53 767 q 84 889 53 857 q 167 922 115 922 q 273 866 233 922 q 313 742 313 810 q 257 598 313 665 q 90 501 202 531 z "},"‘":{"ha":376,"x_min":64,"x_max":323,"o":"m 285 922 l 294 884 q 126 704 126 830 q 144 664 126 664 q 163 679 152 664 q 229 713 184 713 q 295 685 266 713 q 323 614 323 656 q 292 534 323 567 q 208 501 260 501 q 103 557 142 501 q 64 682 64 613 q 119 827 64 760 q 285 922 174 893 z "},"’":{"ha":376,"x_min":53,"x_max":313,"o":"m 92 501 l 82 541 q 250 720 250 593 q 232 760 250 760 q 214 745 224 760 q 147 711 192 711 q 82 740 111 711 q 53 810 53 768 q 84 889 53 857 q 168 922 116 922 q 274 866 235 922 q 313 742 313 810 q 258 597 313 664 q 92 501 203 531 z "},"÷":{"ha":926,"x_min":89,"x_max":836,"o":"m 386 734 q 409 788 386 766 q 463 811 431 811 q 516 788 494 811 q 539 734 539 766 q 516 681 539 704 q 463 659 494 659 q 409 681 431 659 q 386 734 386 704 m 89 517 l 836 517 l 836 392 l 89 392 l 89 517 m 386 174 q 409 228 386 205 q 463 250 431 250 q 516 228 494 250 q 539 174 539 205 q 516 120 539 143 q 463 97 494 97 q 409 120 431 97 q 386 174 386 143 z "},"◊":{"ha":686,"x_min":31,"x_max":652,"o":"m 652 517 l 383 0 l 300 0 l 31 517 l 300 1035 l 383 1035 l 652 517 m 569 517 l 342 960 l 115 517 l 342 75 l 569 517 z "},"ÿ":{"ha":681,"x_min":22,"x_max":659,"o":"m 22 546 l 361 546 l 361 504 l 279 504 l 421 214 l 511 425 q 528 479 528 467 q 472 504 528 504 l 447 504 l 447 546 l 659 546 l 659 504 q 600 493 614 504 q 567 441 585 483 l 277 -229 q 238 -301 277 -247 q 125 -355 200 -355 q 54 -330 82 -355 q 25 -271 25 -304 q 48 -212 25 -237 q 103 -187 71 -187 q 179 -240 149 -187 q 197 -256 188 -256 q 249 -187 220 -256 l 326 0 l 77 504 l 22 504 l 22 546 m 127 772 q 153 834 127 808 q 215 860 178 860 q 277 834 251 860 q 302 772 302 808 q 277 710 302 736 q 215 685 251 685 q 153 710 178 685 q 127 772 127 736 m 378 771 q 404 834 378 808 q 466 860 430 860 q 528 834 502 860 q 553 771 553 808 q 528 710 553 735 q 466 685 502 685 q 405 710 431 685 q 378 771 378 735 z "},"Ÿ":{"ha":897,"x_min":26,"x_max":882,"o":"m 26 909 l 452 909 l 452 865 l 346 865 l 551 481 l 707 789 q 719 815 710 793 q 728 844 728 836 q 686 865 728 865 l 650 865 l 650 909 l 882 909 l 882 865 q 806 852 826 865 q 761 789 787 839 l 572 424 l 572 45 l 713 45 l 713 0 l 210 0 l 210 45 l 350 45 l 350 412 l 92 865 l 26 865 l 26 909 m 236 1108 q 261 1170 236 1144 q 323 1196 287 1196 q 385 1170 359 1196 q 411 1108 411 1144 q 385 1046 411 1072 q 323 1021 359 1021 q 261 1046 287 1021 q 236 1108 236 1072 m 487 1107 q 513 1170 487 1143 q 574 1196 538 1196 q 636 1170 610 1196 q 662 1107 662 1143 q 636 1046 662 1071 q 574 1021 610 1021 q 513 1046 539 1021 q 487 1107 487 1071 z "},"⁄":{"ha":245,"x_min":-220,"x_max":465,"o":"m 465 905 l -134 -53 l -220 -53 l 380 905 l 465 905 z "},"€":{"ha":681,"x_min":21,"x_max":667,"o":"m 322 383 q 347 108 323 188 q 443 28 371 28 q 510 44 479 28 q 542 79 542 60 q 517 111 542 90 q 467 199 467 155 q 494 266 467 239 q 559 293 521 293 q 635 263 604 293 q 667 184 667 234 q 637 90 667 139 q 551 12 607 41 q 418 -17 494 -17 q 207 91 294 -17 q 103 383 119 198 l 21 383 l 35 425 l 100 425 l 100 446 q 102 490 100 477 l 21 490 l 35 532 l 106 532 q 221 805 128 705 q 432 905 313 905 q 590 852 527 905 q 653 732 653 800 q 625 666 653 690 q 555 643 596 643 q 490 668 515 643 q 464 733 464 694 q 508 806 464 772 q 526 827 526 819 q 505 850 526 840 q 449 861 483 861 q 364 814 397 861 q 325 532 331 766 l 481 532 l 467 490 l 323 490 q 322 425 322 466 l 481 425 l 467 383 l 322 383 z "},"‹":{"ha":390,"x_min":28,"x_max":368,"o":"m 368 536 l 191 289 l 364 40 l 204 40 l 28 289 l 210 536 l 368 536 z "},"›":{"ha":390,"x_min":22,"x_max":363,"o":"m 22 40 l 200 289 l 26 536 l 186 536 l 363 289 l 180 40 l 22 40 z "},"ﬁ":{"ha":753,"x_min":24,"x_max":734,"o":"m 478 504 l 288 504 l 288 41 l 359 41 l 359 0 l 24 0 l 24 41 l 103 41 l 103 504 l 24 504 l 24 546 l 103 546 q 440 922 122 922 q 591 886 542 922 q 640 799 640 850 q 613 740 640 763 q 547 717 585 717 q 486 740 511 717 q 461 798 461 763 q 478 845 461 823 q 494 871 494 866 q 439 890 494 890 q 336 863 368 890 q 295 790 303 835 q 288 661 288 745 l 288 546 l 533 546 q 617 552 594 546 q 663 558 640 558 l 663 41 l 734 41 l 734 0 l 399 0 l 399 41 l 478 41 l 478 504 z "},"ﬂ":{"ha":753,"x_min":24,"x_max":734,"o":"m 478 504 l 288 504 l 288 41 l 359 41 l 359 0 l 24 0 l 24 41 l 103 41 l 103 504 l 24 504 l 24 546 l 103 546 q 205 834 109 745 q 427 922 300 922 q 469 920 437 922 q 514 917 501 917 l 663 922 l 663 41 l 734 41 l 734 0 l 399 0 l 399 41 l 478 41 l 478 504 m 288 546 l 478 546 l 478 742 q 457 793 457 768 q 475 843 457 825 q 493 871 493 861 q 432 890 493 890 q 334 861 365 890 q 295 790 302 832 q 288 677 288 747 l 288 546 z "},"‡":{"ha":681,"x_min":43,"x_max":637,"o":"m 454 463 q 367 285 367 374 q 454 121 367 197 q 366 7 363 62 q 405 11 394 5 q 455 46 416 17 q 541 75 494 75 q 607 50 577 75 q 637 -18 637 24 q 610 -85 637 -57 q 541 -113 583 -113 q 452 -84 488 -113 q 405 -48 417 -55 q 366 -43 393 -41 q 400 -136 368 -80 q 432 -243 432 -193 q 403 -318 432 -292 q 339 -345 374 -345 q 273 -315 303 -345 q 243 -237 243 -286 q 274 -149 243 -192 q 310 -89 305 -105 q 315 -43 315 -72 q 235 -77 277 -43 q 134 -113 190 -113 q 67 -86 91 -113 q 43 -17 43 -59 q 70 49 43 23 q 134 75 97 75 q 236 39 186 75 q 315 7 285 3 q 228 121 317 67 q 314 286 314 201 q 228 463 314 360 q 315 575 317 519 q 278 570 292 575 q 225 536 265 566 q 134 507 186 507 q 66 533 90 507 q 43 599 43 559 q 66 665 43 636 q 134 693 90 693 q 238 658 184 693 q 315 624 292 623 q 281 726 315 667 q 248 825 248 786 q 272 896 248 868 q 338 924 297 924 q 407 898 378 924 q 436 827 436 873 q 401 721 436 780 q 366 624 366 662 q 424 642 395 623 l 457 665 q 542 692 493 692 q 612 665 587 692 q 637 600 637 637 q 611 533 637 558 q 541 507 585 507 q 454 536 496 507 q 394 574 402 573 q 366 575 385 575 q 454 463 370 509 z "},"·":{"ha":376,"x_min":79,"x_max":297,"o":"m 79 446 q 111 523 79 491 q 187 554 142 554 q 265 522 233 554 q 297 446 297 490 q 265 368 297 400 q 187 336 233 336 q 111 368 143 336 q 79 446 79 400 z "},"‚":{"ha":376,"x_min":53,"x_max":313,"o":"m 92 -221 l 82 -182 q 250 -3 250 -129 q 232 37 250 37 q 214 22 224 37 q 147 -11 192 -11 q 82 17 111 -11 q 53 87 53 45 q 84 167 53 134 q 168 200 116 200 q 274 144 235 200 q 313 20 313 88 q 258 -125 313 -58 q 92 -221 203 -191 z "},"„":{"ha":681,"x_min":53,"x_max":618,"o":"m 396 -227 l 387 -187 q 555 -8 555 -134 q 536 32 555 32 q 519 17 528 32 q 453 -17 499 -17 q 387 11 416 -17 q 358 82 358 39 q 389 162 358 129 q 472 195 420 195 q 579 139 540 195 q 618 14 618 83 q 563 -130 618 -63 q 396 -227 508 -197 m 90 -227 l 82 -187 q 250 -8 250 -134 q 231 32 250 32 q 214 17 223 32 q 147 -17 194 -17 q 81 11 110 -17 q 53 82 53 39 q 84 162 53 129 q 167 195 115 195 q 273 138 233 195 q 313 14 313 82 q 257 -130 313 -63 q 90 -227 202 -197 z "},"‰":{"ha":1346,"x_min":9,"x_max":1328,"o":"m 856 922 l 100 -53 l 9 -53 l 765 922 l 856 922 m 229 922 q 382 856 323 922 q 441 685 441 789 q 387 508 441 575 q 231 441 332 441 q 69 508 126 441 q 12 677 12 574 q 72 853 12 784 q 229 922 131 922 m 228 469 q 266 507 259 469 q 272 682 272 544 q 260 875 272 856 q 229 895 248 895 q 192 867 201 895 q 182 656 182 840 q 192 495 182 521 q 228 469 202 469 m 637 428 q 791 361 732 428 q 850 191 850 295 q 795 14 850 81 q 639 -53 740 -53 q 478 13 534 -53 q 421 183 421 79 q 480 359 421 290 q 637 428 539 428 m 636 -25 q 674 12 667 -25 q 681 187 681 50 q 669 381 681 361 q 637 400 656 400 q 600 373 610 400 q 590 161 590 345 q 601 1 590 26 q 636 -25 611 -25 m 1116 428 q 1269 361 1209 428 q 1328 191 1328 295 q 1273 14 1328 81 q 1117 -53 1217 -53 q 956 13 1013 -53 q 899 183 899 79 q 958 359 899 290 q 1116 428 1017 428 m 1114 -25 q 1152 12 1145 -25 q 1158 187 1158 50 q 1146 381 1158 361 q 1116 400 1134 400 q 1078 373 1088 400 q 1068 161 1068 345 q 1078 1 1068 26 q 1114 -25 1088 -25 z "},"Â":{"ha":970,"x_min":21,"x_max":949,"o":"m 543 254 l 257 254 l 218 161 q 196 81 196 106 q 264 45 196 45 l 314 45 l 314 0 l 21 0 l 21 45 l 47 45 q 118 62 100 45 q 163 144 136 80 l 481 926 l 521 926 l 854 45 l 949 45 l 949 0 l 501 0 l 501 45 l 623 45 l 543 254 m 277 301 l 525 301 l 406 616 l 277 301 m 391 1231 l 585 1231 l 701 983 l 678 983 l 488 1125 l 300 983 l 275 983 l 391 1231 z "},"Ê":{"ha":897,"x_min":37,"x_max":846,"o":"m 375 865 l 375 481 l 404 481 q 568 642 546 481 l 612 642 l 612 269 l 568 269 q 404 436 557 436 l 375 436 l 375 45 l 530 45 q 799 298 736 45 l 846 298 l 827 0 l 37 0 l 37 45 l 153 45 l 153 865 l 37 865 l 37 909 l 799 909 l 811 656 l 766 656 q 660 825 724 785 q 493 865 597 865 l 375 865 m 354 1231 l 548 1231 l 665 983 l 642 983 l 451 1125 l 264 983 l 239 983 l 354 1231 z "},"Á":{"ha":970,"x_min":21,"x_max":949,"o":"m 543 254 l 257 254 l 218 161 q 196 81 196 106 q 264 45 196 45 l 314 45 l 314 0 l 21 0 l 21 45 l 47 45 q 118 62 100 45 q 163 144 136 80 l 481 926 l 521 926 l 854 45 l 949 45 l 949 0 l 501 0 l 501 45 l 623 45 l 543 254 m 277 301 l 525 301 l 406 616 l 277 301 m 449 1222 l 689 1222 l 391 997 l 366 997 l 449 1222 z "},"Ë":{"ha":897,"x_min":37,"x_max":846,"o":"m 375 865 l 375 481 l 404 481 q 568 642 546 481 l 612 642 l 612 269 l 568 269 q 404 436 557 436 l 375 436 l 375 45 l 530 45 q 799 298 736 45 l 846 298 l 827 0 l 37 0 l 37 45 l 153 45 l 153 865 l 37 865 l 37 909 l 799 909 l 811 656 l 766 656 q 660 825 724 785 q 493 865 597 865 l 375 865 m 236 1108 q 261 1170 236 1144 q 323 1196 287 1196 q 385 1170 359 1196 q 411 1108 411 1144 q 385 1046 411 1072 q 323 1021 359 1021 q 261 1046 287 1021 q 236 1108 236 1072 m 487 1107 q 513 1170 487 1143 q 574 1196 538 1196 q 636 1170 610 1196 q 662 1107 662 1143 q 636 1046 662 1071 q 574 1021 610 1021 q 513 1046 539 1021 q 487 1107 487 1071 z "},"È":{"ha":897,"x_min":37,"x_max":846,"o":"m 375 865 l 375 481 l 404 481 q 568 642 546 481 l 612 642 l 612 269 l 568 269 q 404 436 557 436 l 375 436 l 375 45 l 530 45 q 799 298 736 45 l 846 298 l 827 0 l 37 0 l 37 45 l 153 45 l 153 865 l 37 865 l 37 909 l 799 909 l 811 656 l 766 656 q 660 825 724 785 q 493 865 597 865 l 375 865 m 486 1222 l 569 997 l 544 997 l 245 1222 l 486 1222 z "},"Í":{"ha":521,"x_min":28,"x_max":493,"o":"m 370 865 l 370 45 l 493 45 l 493 0 l 28 0 l 28 45 l 147 45 l 147 865 l 28 865 l 28 909 l 493 909 l 493 865 l 370 865 m 224 1222 l 464 1222 l 165 997 l 140 997 l 224 1222 z "},"Î":{"ha":521,"x_min":28,"x_max":493,"o":"m 370 865 l 370 45 l 493 45 l 493 0 l 28 0 l 28 45 l 147 45 l 147 865 l 28 865 l 28 909 l 493 909 l 493 865 l 370 865 m 165 1231 l 359 1231 l 476 983 l 453 983 l 262 1125 l 75 983 l 50 983 l 165 1231 z "},"Ï":{"ha":521,"x_min":28,"x_max":493,"o":"m 370 865 l 370 45 l 493 45 l 493 0 l 28 0 l 28 45 l 147 45 l 147 865 l 28 865 l 28 909 l 493 909 l 493 865 l 370 865 m 47 1108 q 73 1170 47 1144 q 135 1196 98 1196 q 197 1170 171 1196 q 222 1108 222 1144 q 197 1046 222 1072 q 135 1021 171 1021 q 73 1046 98 1021 q 47 1108 47 1072 m 298 1107 q 324 1170 298 1143 q 386 1196 350 1196 q 448 1170 422 1196 q 473 1107 473 1143 q 448 1046 473 1071 q 386 1021 422 1021 q 325 1046 351 1021 q 298 1107 298 1071 z "},"Ì":{"ha":521,"x_min":28,"x_max":493,"o":"m 370 865 l 370 45 l 493 45 l 493 0 l 28 0 l 28 45 l 147 45 l 147 865 l 28 865 l 28 909 l 493 909 l 493 865 l 370 865 m 297 1222 l 380 997 l 355 997 l 57 1222 l 297 1222 z "},"Ó":{"ha":897,"x_min":41,"x_max":856,"o":"m 41 458 q 162 792 41 663 q 452 922 283 922 q 732 800 608 922 q 856 453 856 678 q 739 115 856 242 q 453 -12 622 -12 q 156 123 271 -12 q 41 458 41 258 m 603 454 q 595 730 603 663 q 555 837 587 796 q 449 878 523 878 q 350 845 387 878 q 303 739 313 812 q 294 456 294 667 q 302 179 294 247 q 343 72 310 112 q 449 32 377 32 q 546 64 509 32 q 593 169 584 96 q 603 454 603 241 m 412 1222 l 652 1222 l 354 997 l 329 997 l 412 1222 z "},"Ô":{"ha":897,"x_min":41,"x_max":856,"o":"m 41 458 q 162 792 41 663 q 452 922 283 922 q 732 800 608 922 q 856 453 856 678 q 739 115 856 242 q 453 -12 622 -12 q 156 123 271 -12 q 41 458 41 258 m 603 454 q 595 730 603 663 q 555 837 587 796 q 449 878 523 878 q 350 845 387 878 q 303 739 313 812 q 294 456 294 667 q 302 179 294 247 q 343 72 310 112 q 449 32 377 32 q 546 64 509 32 q 593 169 584 96 q 603 454 603 241 m 354 1231 l 548 1231 l 665 983 l 642 983 l 451 1125 l 264 983 l 239 983 l 354 1231 z "},"Ò":{"ha":897,"x_min":41,"x_max":856,"o":"m 41 458 q 162 792 41 663 q 452 922 283 922 q 732 800 608 922 q 856 453 856 678 q 739 115 856 242 q 453 -12 622 -12 q 156 123 271 -12 q 41 458 41 258 m 603 454 q 595 730 603 663 q 555 837 587 796 q 449 878 523 878 q 350 845 387 878 q 303 739 313 812 q 294 456 294 667 q 302 179 294 247 q 343 72 310 112 q 449 32 377 32 q 546 64 509 32 q 593 169 584 96 q 603 454 603 241 m 486 1222 l 569 997 l 544 997 l 245 1222 l 486 1222 z "},"Ú":{"ha":970,"x_min":25,"x_max":957,"o":"m 367 865 l 367 278 q 418 89 367 137 q 558 41 470 41 q 678 66 625 41 q 762 142 732 92 q 793 314 793 193 l 793 794 q 787 853 793 841 q 729 865 781 865 l 667 865 l 667 909 l 957 909 l 957 865 l 914 865 q 852 853 863 865 q 840 789 840 842 l 840 318 q 823 161 840 229 q 731 41 806 94 q 503 -12 657 -12 q 344 6 421 -12 q 218 73 267 25 q 157 170 170 120 q 144 286 144 220 l 144 865 l 25 865 l 25 909 l 492 909 l 492 865 l 367 865 m 449 1222 l 689 1222 l 391 997 l 366 997 l 449 1222 z "},"Û":{"ha":970,"x_min":25,"x_max":957,"o":"m 367 865 l 367 278 q 418 89 367 137 q 558 41 470 41 q 678 66 625 41 q 762 142 732 92 q 793 314 793 193 l 793 794 q 787 853 793 841 q 729 865 781 865 l 667 865 l 667 909 l 957 909 l 957 865 l 914 865 q 852 853 863 865 q 840 789 840 842 l 840 318 q 823 161 840 229 q 731 41 806 94 q 503 -12 657 -12 q 344 6 421 -12 q 218 73 267 25 q 157 170 170 120 q 144 286 144 220 l 144 865 l 25 865 l 25 909 l 492 909 l 492 865 l 367 865 m 391 1231 l 585 1231 l 701 983 l 678 983 l 488 1125 l 300 983 l 275 983 l 391 1231 z "},"Ù":{"ha":970,"x_min":25,"x_max":957,"o":"m 367 865 l 367 278 q 418 89 367 137 q 558 41 470 41 q 678 66 625 41 q 762 142 732 92 q 793 314 793 193 l 793 794 q 787 853 793 841 q 729 865 781 865 l 667 865 l 667 909 l 957 909 l 957 865 l 914 865 q 852 853 863 865 q 840 789 840 842 l 840 318 q 823 161 840 229 q 731 41 806 94 q 503 -12 657 -12 q 344 6 421 -12 q 218 73 267 25 q 157 170 170 120 q 144 286 144 220 l 144 865 l 25 865 l 25 909 l 492 909 l 492 865 l 367 865 m 522 1222 l 606 997 l 581 997 l 282 1222 l 522 1222 z "},"ı":{"ha":376,"x_min":35,"x_max":338,"o":"m 285 562 l 285 41 l 338 41 l 338 0 l 35 0 l 35 41 l 100 41 l 100 504 l 35 504 l 35 546 l 121 546 q 233 554 188 546 q 285 562 279 562 z "},"ˆ":{"ha":463,"x_min":21,"x_max":447,"o":"m 136 895 l 330 895 l 447 647 l 424 647 l 233 789 l 46 647 l 21 647 l 136 895 z "},"˜":{"ha":463,"x_min":20,"x_max":444,"o":"m 425 859 l 444 859 q 396 728 439 770 q 297 685 353 685 q 195 711 266 685 q 98 737 125 737 q 40 686 60 737 l 20 686 q 76 821 31 783 q 164 860 122 860 q 268 833 189 860 q 370 806 347 806 q 425 859 410 806 z "},"ˉ":{"ha":463,"x_min":28,"x_max":436,"o":"m 28 835 l 436 835 l 436 705 l 28 705 l 28 835 z "},"˘":{"ha":463,"x_min":33,"x_max":431,"o":"m 386 876 l 431 876 q 366 725 425 781 q 232 668 307 668 q 100 722 157 668 q 33 876 43 777 l 78 876 q 229 793 110 793 q 386 876 357 793 z "},"˙":{"ha":463,"x_min":144,"x_max":319,"o":"m 144 772 q 170 834 144 809 q 232 860 195 860 q 293 834 267 860 q 319 772 319 808 q 294 710 319 736 q 232 685 269 685 q 170 710 195 685 q 144 772 144 736 z "},"˚":{"ha":463,"x_min":106,"x_max":358,"o":"m 106 770 q 143 859 106 823 q 232 896 180 896 q 321 859 284 896 q 358 770 358 823 q 321 680 358 717 q 232 643 284 643 q 143 680 180 643 q 106 770 106 718 m 311 770 q 288 825 311 802 q 232 848 264 848 q 176 825 199 848 q 153 770 153 802 q 176 714 153 737 q 232 690 199 690 q 288 714 264 690 q 311 770 311 737 z "},"¸":{"ha":463,"x_min":121,"x_max":323,"o":"m 191 11 l 224 11 l 225 -16 l 224 -66 q 323 -157 323 -65 q 285 -237 323 -208 q 208 -267 247 -267 q 121 -254 163 -267 l 121 -214 q 172 -221 152 -221 q 227 -179 227 -221 q 178 -144 227 -144 q 192 -26 193 -45 l 191 11 z "},"˝":{"ha":463,"x_min":85,"x_max":510,"o":"m 129 892 l 298 892 l 109 664 l 85 664 l 129 892 m 342 892 l 510 892 l 319 664 l 297 664 l 342 892 z "},"˛":{"ha":463,"x_min":72,"x_max":383,"o":"m 222 14 l 262 14 q 193 -106 193 -43 q 226 -189 193 -155 q 306 -224 259 -224 q 367 -207 327 -224 l 383 -227 q 222 -283 305 -283 q 118 -243 163 -283 q 72 -149 72 -203 q 83 -98 72 -122 q 114 -54 94 -75 q 170 -10 134 -33 q 222 14 206 14 z "},"ˇ":{"ha":463,"x_min":18,"x_max":444,"o":"m 329 647 l 135 647 l 18 895 l 41 895 l 232 753 l 419 895 l 444 895 l 329 647 z "},"Ł":{"ha":825,"x_min":18,"x_max":796,"o":"m 364 524 l 364 45 l 450 45 q 589 63 541 45 q 680 150 636 82 q 754 309 724 217 l 796 309 l 782 0 l 18 0 l 18 45 l 142 45 l 142 330 l 18 224 l 18 288 l 142 393 l 142 865 l 18 865 l 18 909 l 500 909 l 500 865 l 364 865 l 364 583 l 526 722 l 526 664 l 364 524 z "},"ł":{"ha":376,"x_min":20,"x_max":359,"o":"m 282 922 l 282 570 l 359 636 l 359 571 l 282 504 l 282 41 l 339 41 l 339 0 l 36 0 l 36 41 l 97 41 l 97 355 l 20 290 l 20 355 l 97 421 l 97 868 l 36 868 l 36 909 q 205 916 121 909 l 260 922 l 282 922 z "},"Š":{"ha":681,"x_min":50,"x_max":631,"o":"m 574 905 l 585 661 l 530 661 q 433 830 488 782 q 301 878 378 878 q 193 836 235 878 q 150 741 150 795 q 195 648 150 673 q 349 600 239 623 q 573 492 516 564 q 631 309 631 420 q 555 83 631 178 q 343 -12 479 -12 q 168 49 246 -12 q 100 -9 130 19 l 54 -9 l 54 256 l 107 256 q 339 32 167 32 q 479 85 430 32 q 528 205 528 139 q 506 273 528 243 q 456 320 485 302 q 299 364 428 338 q 110 463 170 391 q 50 644 50 536 q 124 842 50 761 q 307 922 197 922 q 473 864 391 922 q 530 905 500 880 l 574 905 m 438 983 l 244 983 l 127 1231 l 151 1231 l 341 1089 l 528 1231 l 553 1231 l 438 983 z "},"š":{"ha":521,"x_min":43,"x_max":488,"o":"m 446 562 l 446 393 l 404 393 q 240 521 366 521 q 158 498 193 521 q 123 443 123 475 q 150 400 123 415 q 287 374 177 385 q 442 316 397 363 q 488 195 488 269 q 430 42 488 102 q 275 -17 373 -17 q 117 40 179 -17 l 74 5 l 43 5 l 43 204 l 83 204 q 277 28 127 28 q 369 53 330 28 q 408 117 408 78 q 388 161 408 144 q 289 186 367 178 q 161 211 212 195 q 79 266 111 226 q 47 374 47 307 q 102 507 47 451 q 252 562 156 562 q 382 524 319 562 l 414 562 l 446 562 m 358 647 l 164 647 l 47 895 l 71 895 l 261 753 l 448 895 l 473 895 l 358 647 z "},"Ž":{"ha":897,"x_min":56,"x_max":842,"o":"m 90 909 l 828 909 l 828 869 l 304 45 l 471 45 q 575 59 526 45 q 682 138 625 74 q 783 335 739 202 l 842 335 l 833 0 l 56 0 l 56 54 l 568 865 l 385 865 q 230 813 280 865 q 143 627 179 761 l 90 627 l 90 909 m 547 983 l 353 983 l 236 1231 l 259 1231 l 450 1089 l 637 1231 l 662 1231 l 547 983 z "},"ž":{"ha":593,"x_min":24,"x_max":570,"o":"m 56 546 l 570 546 l 570 513 l 245 41 l 321 41 q 416 67 388 41 q 528 241 445 94 l 570 241 l 558 0 l 24 0 l 24 40 l 345 504 l 298 504 q 197 482 223 504 q 90 330 171 460 l 46 330 l 56 546 m 394 647 l 200 647 l 83 895 l 106 895 l 297 753 l 484 895 l 509 895 l 394 647 z "},"¦":{"ha":786,"x_min":329,"x_max":456,"o":"m 329 922 l 456 922 l 456 408 l 329 408 l 329 922 m 329 157 l 456 157 l 456 -357 l 329 -357 l 329 157 z "},"­":{"ha":521,"x_min":93,"x_max":428,"o":"m 93 354 l 428 354 l 428 195 l 93 195 l 93 354 z "},"¯":{"ha":694,"x_min":-8,"x_max":703,"o":"m 703 1014 l -8 1014 l -8 1083 l 703 1083 l 703 1014 z "},"Ð":{"ha":970,"x_min":26,"x_max":921,"o":"m 140 432 l 26 432 l 26 476 l 140 476 l 140 865 l 26 865 l 26 909 l 488 909 q 804 783 688 909 q 921 463 921 656 q 885 274 921 362 q 776 114 850 186 q 624 21 702 41 q 433 0 547 0 l 26 0 l 26 45 l 140 45 l 140 432 m 566 432 l 363 432 l 363 45 l 435 45 q 634 141 600 45 q 668 472 668 238 q 647 735 668 655 q 583 840 626 815 q 475 865 541 865 l 363 865 l 363 476 l 566 476 l 566 432 z "},"ð":{"ha":694,"x_min":47,"x_max":642,"o":"m 396 839 l 542 916 l 567 882 l 433 812 q 588 613 535 734 q 642 350 642 492 q 548 73 642 163 q 336 -17 454 -17 q 135 68 222 -17 q 47 272 47 153 q 134 476 47 390 q 326 562 220 562 q 431 534 378 562 q 359 774 428 665 l 157 668 l 136 704 l 335 807 q 187 889 273 868 l 187 925 q 396 839 275 912 m 432 149 l 432 378 q 409 503 432 477 q 347 528 387 528 q 280 501 302 528 q 257 385 257 475 l 257 125 q 347 18 257 18 q 411 47 389 18 q 432 149 432 75 z "},"Ý":{"ha":897,"x_min":26,"x_max":882,"o":"m 26 909 l 452 909 l 452 865 l 346 865 l 551 481 l 707 789 q 719 815 710 793 q 728 844 728 836 q 686 865 728 865 l 650 865 l 650 909 l 882 909 l 882 865 q 806 852 826 865 q 761 789 787 839 l 572 424 l 572 45 l 713 45 l 713 0 l 210 0 l 210 45 l 350 45 l 350 412 l 92 865 l 26 865 l 26 909 m 412 1222 l 652 1222 l 354 997 l 329 997 l 412 1222 z "},"ý":{"ha":681,"x_min":22,"x_max":659,"o":"m 22 546 l 361 546 l 361 504 l 279 504 l 421 214 l 511 425 q 528 479 528 467 q 472 504 528 504 l 447 504 l 447 546 l 659 546 l 659 504 q 600 493 614 504 q 567 441 585 483 l 277 -229 q 238 -301 277 -247 q 125 -355 200 -355 q 54 -330 82 -355 q 25 -271 25 -304 q 48 -212 25 -237 q 103 -187 71 -187 q 179 -240 149 -187 q 197 -256 188 -256 q 249 -187 220 -256 l 326 0 l 77 504 l 22 504 l 22 546 m 304 886 l 545 886 l 246 661 l 221 661 l 304 886 z "},"Þ":{"ha":825,"x_min":16,"x_max":802,"o":"m 16 909 l 465 909 l 465 865 l 351 865 l 351 720 l 447 720 q 722 647 642 720 q 802 479 802 574 q 711 308 802 381 q 392 235 621 235 l 351 235 l 351 45 l 482 45 l 482 0 l 16 0 l 16 45 l 129 45 l 129 865 l 16 865 l 16 909 m 351 675 l 351 279 l 397 279 q 491 289 458 279 q 545 342 524 298 q 566 479 566 385 q 545 614 566 572 q 492 665 524 656 q 400 675 460 675 l 351 675 z "},"þ":{"ha":681,"x_min":21,"x_max":642,"o":"m 279 922 l 279 476 l 282 476 q 418 562 328 562 q 573 477 504 562 q 642 271 642 392 q 578 66 642 149 q 424 -17 515 -17 q 279 58 339 -17 l 279 -315 l 366 -315 l 366 -357 l 21 -357 l 21 -315 l 94 -315 l 94 865 l 21 865 l 21 905 l 50 905 q 95 907 62 905 q 170 912 127 908 l 260 922 l 279 922 m 279 350 l 279 201 q 312 70 279 116 q 383 24 345 24 q 419 48 406 24 q 432 175 432 73 l 432 347 q 419 487 432 456 q 382 518 407 518 q 306 471 333 518 q 279 350 279 423 z "},"−":{"ha":926,"x_min":89,"x_max":836,"o":"m 89 517 l 836 517 l 836 392 l 89 392 l 89 517 z "},"×":{"ha":926,"x_min":114,"x_max":814,"o":"m 114 717 l 201 804 l 464 542 l 726 804 l 814 717 l 553 454 l 812 195 l 724 106 l 464 366 l 204 106 l 115 195 l 376 454 l 114 717 z "},"¹":{"ha":449,"x_min":47,"x_max":403,"o":"m 297 901 l 297 475 l 403 475 l 403 453 l 47 453 l 47 475 l 161 475 l 161 871 l 47 871 l 47 893 l 170 895 l 283 901 l 297 901 z "},"²":{"ha":449,"x_min":31,"x_max":418,"o":"m 410 600 l 396 453 l 31 453 l 31 513 l 81 547 q 236 662 199 618 q 273 765 273 706 q 186 876 273 876 q 125 863 152 876 q 98 835 98 850 q 115 822 98 824 q 186 770 186 813 q 165 734 186 748 q 121 720 145 720 q 70 738 94 720 q 46 787 46 755 q 95 871 46 837 q 221 905 143 905 q 360 869 302 905 q 418 781 418 833 q 288 635 418 703 l 111 543 l 111 541 l 332 541 q 372 554 363 541 q 380 600 380 567 l 410 600 z "},"³":{"ha":449,"x_min":35,"x_max":422,"o":"m 176 682 l 118 679 q 102 690 102 679 q 119 703 102 703 q 237 719 207 703 q 267 798 267 736 q 195 884 267 884 q 155 878 173 884 q 136 865 136 872 q 149 854 136 857 q 180 814 180 837 q 162 782 180 795 q 122 770 144 770 q 75 783 97 770 q 53 819 53 797 q 98 879 53 853 q 216 905 144 905 q 352 876 298 905 q 407 802 407 847 q 212 694 407 713 l 212 692 q 373 655 323 691 q 422 571 422 619 q 365 480 422 516 q 208 444 307 444 q 79 473 123 444 q 35 538 35 503 q 56 577 35 563 q 103 591 77 591 q 152 577 134 591 q 170 543 170 563 q 125 497 170 515 q 117 489 117 493 q 144 473 117 479 q 196 467 172 467 q 278 572 278 467 q 176 682 278 687 z "},"½":{"ha":1287,"x_min":135,"x_max":1131,"o":"m 385 901 l 385 475 l 490 475 l 490 453 l 135 453 l 135 475 l 249 475 l 249 871 l 135 871 l 135 893 l 257 895 l 371 901 l 385 901 m 987 905 l 388 -53 l 302 -53 l 902 905 l 987 905 m 1122 102 l 1109 -45 l 743 -45 l 743 15 l 793 50 q 949 164 912 121 q 986 267 986 208 q 899 378 986 378 q 838 366 865 378 q 811 337 811 353 q 828 324 811 326 q 899 272 899 315 q 878 236 899 250 q 833 222 858 222 q 783 240 806 222 q 759 290 759 258 q 807 373 759 339 q 934 408 856 408 q 1073 371 1015 408 q 1131 283 1131 335 q 1000 137 1131 205 l 824 45 l 824 43 l 1044 43 q 1084 56 1076 43 q 1093 102 1093 69 l 1122 102 z "},"¼":{"ha":1287,"x_min":138,"x_max":1128,"o":"m 387 901 l 387 475 l 493 475 l 493 453 l 138 453 l 138 475 l 252 475 l 252 871 l 138 871 l 138 893 l 260 895 l 374 901 l 387 901 m 973 905 l 374 -53 l 288 -53 l 888 905 l 973 905 m 1038 408 l 1038 98 l 1101 98 l 1101 143 l 1128 143 l 1128 31 l 1101 31 l 1101 77 l 1038 77 l 1038 -22 l 1101 -22 l 1101 -45 l 838 -45 l 838 -22 l 911 -22 l 911 77 l 720 77 l 720 98 l 975 408 l 1038 408 m 753 98 l 911 98 l 911 290 l 753 98 z "},"¾":{"ha":1287,"x_min":164,"x_max":1128,"o":"m 306 682 l 248 679 q 231 690 231 679 q 249 703 231 703 q 366 719 336 703 q 396 798 396 736 q 324 884 396 884 q 284 878 302 884 q 266 865 266 872 q 278 854 266 857 q 310 814 310 837 q 292 782 310 795 q 252 770 273 770 q 204 783 227 770 q 182 819 182 797 q 228 879 182 853 q 346 905 273 905 q 482 876 427 905 q 536 802 536 847 q 342 694 536 713 l 342 692 q 502 655 452 691 q 552 571 552 619 q 494 480 552 516 q 338 444 437 444 q 209 473 253 444 q 164 538 164 503 q 185 577 164 563 q 233 591 206 591 q 281 577 264 591 q 299 543 299 563 q 254 497 299 515 q 246 489 246 493 q 274 473 246 479 q 326 467 301 467 q 408 572 408 467 q 306 682 408 687 m 1008 905 l 409 -53 l 323 -53 l 923 905 l 1008 905 m 1038 408 l 1038 98 l 1102 98 l 1102 143 l 1128 143 l 1128 31 l 1102 31 l 1102 77 l 1038 77 l 1038 -22 l 1102 -22 l 1102 -45 l 838 -45 l 838 -22 l 911 -22 l 911 77 l 720 77 l 720 98 l 976 408 l 1038 408 m 753 98 l 911 98 l 911 290 l 753 98 z "},"¤":{"ha":926,"x_min":115,"x_max":811,"o":"m 115 720 l 199 803 l 289 713 q 463 768 365 768 q 637 713 559 768 l 728 803 l 811 720 l 721 629 q 775 456 775 545 q 721 285 775 361 l 811 195 l 726 110 l 637 199 q 463 143 553 143 q 289 199 367 143 l 200 110 l 115 195 l 205 285 q 150 456 150 372 q 205 629 150 546 l 115 720 m 657 456 q 600 593 657 536 q 463 650 543 650 q 325 593 382 650 q 268 456 268 536 q 325 318 268 375 q 463 261 382 261 q 600 318 543 261 q 657 456 657 375 z "}}}
